<?xml version="1.0" encoding="UTF-8" standalone="no"?>
<!DOCTYPE svg PUBLIC "-//W3C//DTD SVG 1.1//EN" "http://www.w3.org/Graphics/SVG/1.1/DTD/svg11.dtd">
<svg xmlns="http://www.w3.org/2000/svg" version="1.1" viewBox="0.00 0.00 1024.00 1024.00">
<path fill="#ffffff" d="
  M 514.75 230.03
  L 515.20 225.73
  L 516.35 221.35
  L 518.12 217.12
  L 520.54 212.96
  L 523.56 209.01
  L 527.04 205.47
  L 530.86 202.41
  L 534.95 199.90
  L 538.18 198.33
  L 541.18 197.15
  L 543.94 196.35
  L 546.47 195.94
  L 553.03 195.59
  L 558.56 195.84
  L 561.77 196.34
  L 564.92 197.11
  L 568.07 198.17
  L 571.13 199.49
  L 574.07 201.07
  L 576.87 202.88
  L 579.51 204.92
  L 581.98 207.16
  L 584.21 209.55
  L 586.23 212.11
  L 588.03 214.83
  L 589.60 217.69
  L 590.89 220.63
  L 591.92 223.69
  L 592.65 226.75
  L 593.12 229.90
  L 593.29 232.81
  L 593.26 236.42
  L 593.03 239.88
  L 592.61 243.18
  L 591.98 246.34
  L 590.92 249.39
  L 589.05 253.26
  L 586.55 257.51
  L 584.34 260.57
  L 581.72 263.06
  L 576.61 267.34
  L 574.15 269.18
  L 571.61 270.76
  L 568.97 272.07
  L 566.25 273.13
  L 566.25 273.13
  L 566.25 273.13
  L 563.06 274.01
  L 559.75 274.55
  L 555.66 274.63
  L 549.85 274.02
  L 548.19 273.80
  L 545.76 273.38
  L 543.72 272.81
  L 538.11 270.47
  L 533.08 267.63
  L 528.64 264.27
  L 524.77 260.42
  L 524.77 260.42
  L 524.77 260.42
  L 521.79 256.50
  L 519.27 252.17
  L 517.23 247.43
  L 515.67 242.27
  L 515.19 239.79
  L 514.88 236.93
  L 514.75 230.03
  Z
  M 535.10 221.67
  L 554.98 221.73
  L 555.10 221.62
  L 555.10 221.60
  L 554.56 221.13
  L 553.02 220.73
  L 550.71 220.45
  L 547.99 220.35
  L 542.09 220.33
  L 539.37 220.41
  L 537.06 220.67
  L 535.52 221.06
  L 534.98 221.52
  L 534.98 221.54
  L 535.01 221.63
  L 535.10 221.67
  Z
  M 566.57 221.82
  L 570.44 221.93
  L 570.95 221.82
  L 570.60 221.43
  L 569.31 220.71
  L 567.97 220.24
  L 567.27 220.26
  L 566.71 220.66
  L 566.27 221.17
  L 566.08 221.65
  L 566.57 221.82
  Z
  M 562.20 223.64
  L 562.22 223.66
  L 562.80 224.61
  L 562.98 225.99
  L 562.72 227.60
  L 562.09 229.12
  L 562.05 229.49
  L 562.30 229.76
  L 562.36 229.78
  L 562.79 229.90
  L 563.44 229.87
  L 563.77 229.30
  L 564.07 226.91
  L 564.02 224.59
  L 563.69 223.43
  L 562.73 222.30
  L 561.17 221.52
  L 559.26 221.20
  L 557.28 221.38
  L 556.87 221.60
  L 557.26 221.86
  L 559.07 222.39
  L 561.10 223.00
  L 562.20 223.64
  Z
  M 534.01 224.00
  L 534.25 246.98
  L 534.29 247.02
  L 534.32 247.02
  L 534.75 246.21
  L 535.10 243.95
  L 535.36 236.55
  L 535.34 234.39
  L 534.92 227.01
  L 534.53 224.75
  L 534.08 223.96
  L 534.08 223.96
  L 534.05 223.96
  L 534.01 224.00
  Z
  M 557.07 226.99
  L 556.87 225.63
  L 556.77 224.33
  L 556.77 224.30
  L 556.70 224.16
  L 556.49 224.01
  L 556.33 223.99
  L 556.26 224.12
  L 555.98 225.93
  L 556.01 227.54
  L 556.38 228.76
  L 557.01 229.48
  L 557.31 229.64
  L 557.36 229.66
  L 557.72 229.60
  L 557.92 229.29
  L 557.51 228.07
  L 557.07 226.99
  Z
  M 568.56 229.42
  L 568.15 229.85
  L 568.73 229.96
  L 569.45 229.82
  L 570.43 229.15
  L 571.23 227.90
  L 571.75 226.16
  L 571.97 224.16
  L 571.97 224.15
  L 571.89 224.08
  L 571.56 224.10
  L 571.39 224.18
  L 571.35 224.37
  L 571.32 225.49
  L 571.07 226.53
  L 570.13 228.09
  L 568.56 229.42
  Z
  M 548.32 229.28
  L 551.39 229.99
  L 551.53 229.98
  L 551.68 229.78
  L 551.58 229.55
  L 548.91 227.90
  L 547.96 227.53
  L 547.26 227.46
  L 544.07 228.01
  L 542.30 228.59
  L 541.40 229.19
  L 541.17 229.59
  L 541.17 229.59
  L 541.59 229.81
  L 542.69 229.82
  L 547.24 229.26
  L 547.73 229.21
  L 548.32 229.28
  Z
  M 559.36 229.59
  L 559.40 229.64
  L 559.67 229.57
  L 559.68 229.50
  L 559.60 229.31
  L 559.42 229.21
  L 559.36 229.22
  L 559.32 229.24
  L 559.36 229.59
  Z
  M 573.97 238.18
  L 574.64 240.45
  L 574.64 241.27
  L 574.39 242.02
  L 573.82 242.68
  L 572.85 243.19
  L 572.51 243.47
  L 572.58 243.90
  L 573.05 245.45
  L 573.04 247.46
  L 573.34 247.85
  L 573.66 247.90
  L 573.75 247.88
  L 573.79 247.80
  L 574.33 245.89
  L 575.49 243.54
  L 576.11 241.70
  L 576.03 239.71
  L 575.33 237.89
  L 574.04 236.36
  L 573.34 235.76
  L 571.35 234.25
  L 570.60 233.95
  L 569.84 233.91
  L 569.49 233.99
  L 569.18 234.23
  L 569.44 234.51
  L 572.74 236.82
  L 573.53 237.51
  L 573.97 238.18
  Z
  M 553.61 240.30
  L 555.63 236.78
  L 555.98 236.36
  L 556.47 236.10
  L 561.85 234.62
  L 561.88 234.61
  L 561.93 234.37
  L 561.86 234.21
  L 561.70 234.16
  L 559.87 234.30
  L 558.21 234.66
  L 556.71 235.25
  L 555.39 236.07
  L 555.39 236.07
  L 555.39 236.07
  L 555.39 236.07
  L 554.36 236.97
  L 553.46 238.05
  L 552.06 240.73
  L 551.69 242.63
  L 551.84 244.91
  L 552.05 246.84
  L 552.04 248.75
  L 552.00 249.21
  L 551.75 249.72
  L 551.23 249.93
  L 546.00 250.35
  L 544.55 250.70
  L 544.08 251.01
  L 544.08 251.01
  L 544.54 251.28
  L 545.91 251.53
  L 549.15 251.86
  L 551.60 251.89
  L 553.40 252.12
  L 554.37 252.67
  L 555.49 253.68
  L 555.53 253.71
  L 555.77 253.58
  L 555.85 252.97
  L 555.69 252.45
  L 554.36 250.63
  L 553.44 248.66
  L 553.44 248.66
  L 552.89 245.96
  L 553.01 243.02
  L 553.15 242.49
  L 553.35 242.09
  L 553.49 241.73
  L 553.48 241.24
  L 553.45 240.74
  L 553.61 240.30
  Z
  M 542.59 239.95
  L 544.54 238.12
  L 545.81 237.48
  L 547.90 236.77
  L 548.51 236.58
  L 548.90 236.33
  L 549.05 235.90
  L 548.94 235.45
  L 548.76 235.22
  L 548.17 235.02
  L 548.07 235.02
  L 546.47 235.32
  L 544.87 236.28
  L 543.41 237.79
  L 542.21 239.71
  L 542.19 239.79
  L 542.22 239.89
  L 542.29 239.96
  L 542.45 240.01
  L 542.50 240.01
  L 542.59 239.95
  Z
  M 556.7598 241.8693
  L 556.9328 241.5523
  L 556.8523 240.9469
  L 556.5654 240.4078
  L 556.2402 240.2507
  L 556.0672 240.5677
  L 556.1477 241.1731
  L 556.4346 241.7122
  L 556.7598 241.8693
  Z
  M 567.7098 240.4796
  L 567.3251 240.2310
  L 566.4043 240.1400
  L 565.4869 240.2599
  L 565.1102 240.5204
  L 565.4949 240.7690
  L 566.4157 240.8600
  L 567.3331 240.7401
  L 567.7098 240.4796
  Z
  M 542.21 242.22
  L 542.22 242.56
  L 542.54 242.70
  L 542.57 242.68
  L 542.75 242.44
  L 542.63 242.12
  L 542.28 242.09
  L 542.21 242.22
  Z
  M 562.40 242.39
  L 561.63 242.82
  L 560.87 243.00
  L 559.69 242.87
  L 558.35 242.18
  L 558.17 242.14
  L 558.07 242.28
  L 558.00 242.56
  L 558.00 242.59
  L 558.01 242.60
  L 560.97 243.69
  L 562.08 243.51
  L 562.77 242.69
  L 562.86 242.20
  L 562.40 242.39
  Z
  M 568.48 253.30
  L 567.94 253.59
  L 568.47 253.89
  L 569.23 253.99
  L 570.43 253.65
  L 571.63 252.67
  L 572.72 251.12
  L 573.60 249.21
  L 573.60 249.20
  L 573.54 249.10
  L 573.21 249.02
  L 573.02 249.04
  L 572.91 249.21
  L 572.51 250.31
  L 571.92 251.26
  L 571.92 251.26
  L 571.92 251.26
  L 570.48 252.50
  L 568.48 253.30
  Z
  M 543.8293 251.0082
  L 543.4934 250.7114
  L 542.5267 250.4480
  L 539.3633 250.1701
  L 536.1920 250.3374
  L 535.2167 250.5670
  L 534.8707 250.8518
  L 535.2066 251.1486
  L 536.1733 251.4120
  L 539.3367 251.6899
  L 542.5080 251.5226
  L 543.4833 251.2930
  L 543.8293 251.0082
  Z"
/>
<path fill="#ffffff" d="
  M 512.04 242.81
  L 514.97 252.07
  L 514.99 252.17
  L 514.84 252.71
  L 514.33 252.95
  L 507.59 252.96
  L 496.56 253.13
  L 485.66 254.13
  L 474.90 255.67
  L 464.30 257.74
  L 453.84 260.36
  L 447.17 262.46
  L 439.61 265.26
  L 431.13 268.80
  L 422.17 272.88
  L 422.14 272.89
  L 421.30 272.90
  L 420.71 272.31
  L 417.48 264.34
  L 417.44 263.93
  L 417.66 263.59
  L 419.25 262.39
  L 420.94 261.45
  L 429.36 257.76
  L 437.91 254.44
  L 446.45 251.54
  L 455.10 249.02
  L 463.66 246.93
  L 472.29 245.25
  L 480.85 243.98
  L 489.45 243.13
  L 503.29 242.05
  L 507.35 241.87
  L 511.14 242.07
  L 511.70 242.31
  L 512.04 242.81
  Z"
/>
<path fill="#ffffff" d="
  M 382.24 245.44
  L 386.63 245.98
  L 390.75 246.97
  L 394.89 248.52
  L 398.99 250.64
  L 403.07 253.36
  L 407.20 256.72
  L 408.83 258.44
  L 410.65 260.88
  L 412.67 264.05
  L 414.90 267.96
  L 416.39 271.06
  L 417.54 274.27
  L 418.40 277.67
  L 418.92 281.12
  L 419.14 284.78
  L 419.02 288.42
  L 418.58 292.13
  L 417.82 295.75
  L 416.56 299.56
  L 414.77 303.20
  L 412.45 306.72
  L 409.69 309.96
  L 406.52 312.92
  L 403.04 315.48
  L 399.32 317.60
  L 395.44 319.22
  L 390.36 320.69
  L 385.35 321.57
  L 380.41 321.85
  L 375.55 321.55
  L 375.55 321.55
  L 375.55 321.55
  L 370.84 320.68
  L 366.20 319.23
  L 361.63 317.21
  L 357.13 314.62
  L 354.46 312.66
  L 351.90 310.34
  L 349.44 307.63
  L 347.20 304.67
  L 345.24 301.53
  L 343.59 298.27
  L 342.35 295.06
  L 341.50 291.87
  L 340.95 288.50
  L 340.67 285.16
  L 340.66 281.87
  L 340.92 278.63
  L 341.44 275.46
  L 342.22 272.36
  L 343.25 269.36
  L 344.54 266.45
  L 346.46 263.06
  L 348.75 259.86
  L 351.34 256.95
  L 354.27 254.25
  L 356.81 252.30
  L 359.44 250.59
  L 362.16 249.12
  L 364.98 247.89
  L 364.98 247.89
  L 364.98 247.89
  L 364.98 247.89
  L 364.98 247.89
  L 369.03 246.59
  L 373.26 245.74
  L 377.66 245.36
  L 382.24 245.44
  Z
  M 365.79 263.97
  L 366.50 263.98
  L 366.67 263.75
  L 366.59 263.47
  L 366.53 263.42
  L 365.96 263.22
  L 365.57 263.24
  L 365.35 263.41
  L 365.35 263.68
  L 365.39 263.75
  L 365.79 263.97
  Z
  M 367.93 267.86
  L 369.24 267.90
  L 369.65 267.79
  L 369.66 267.78
  L 369.79 267.55
  L 369.48 267.33
  L 367.95 267.19
  L 366.42 267.24
  L 366.10 267.45
  L 366.21 267.68
  L 366.22 267.69
  L 366.62 267.82
  L 367.93 267.86
  Z
  M 377.42 267.57
  L 377.56 267.63
  L 377.67 267.37
  L 377.66 267.35
  L 377.64 267.33
  L 377.43 267.31
  L 377.40 267.35
  L 377.37 267.47
  L 377.42 267.57
  Z
  M 380.91 272.89
  L 381.04 273.91
  L 381.04 273.91
  L 380.78 274.71
  L 380.19 275.48
  L 380.19 275.49
  L 380.19 275.50
  L 380.37 275.71
  L 380.76 275.74
  L 381.70 274.53
  L 382.04 273.39
  L 382.02 272.08
  L 381.83 271.63
  L 381.42 271.37
  L 378.79 270.89
  L 377.66 270.97
  L 376.65 271.26
  L 376.18 271.59
  L 376.74 271.72
  L 379.68 272.07
  L 380.51 272.42
  L 380.91 272.89
  Z
  M 369.34 271.54
  L 369.43 271.63
  L 369.56 271.59
  L 369.64 271.48
  L 369.64 271.46
  L 369.50 271.30
  L 369.46 271.31
  L 369.34 271.54
  Z
  M 372.30 274.22
  L 372.82 275.23
  L 373.20 275.62
  L 373.49 275.76
  L 373.47 275.44
  L 372.99 274.02
  L 372.66 272.57
  L 372.52 272.28
  L 372.34 272.55
  L 372.21 273.08
  L 372.30 274.22
  Z
  M 364.29 272.57
  L 364.36 272.69
  L 364.55 272.69
  L 364.66 272.61
  L 364.69 272.53
  L 364.64 272.34
  L 364.58 272.31
  L 364.33 272.32
  L 364.29 272.57
  Z
  M 393.58 272.91
  L 393.74 272.74
  L 393.85 272.50
  L 393.84 272.26
  L 393.61 272.29
  L 392.76 272.90
  L 392.38 273.43
  L 392.34 273.64
  L 392.54 273.65
  L 392.81 273.50
  L 393.58 272.91
  Z
  M 396.75 272.60
  L 396.46 272.31
  L 396.17 272.60
  L 396.46 272.89
  L 396.75 272.60
  Z
  M 398.32 285.88
  L 391.76 286.34
  L 391.09 286.52
  L 391.68 286.89
  L 393.22 287.34
  L 394.77 287.52
  L 394.77 287.52
  L 396.97 287.33
  L 399.18 286.62
  L 399.55 286.34
  L 399.75 285.92
  L 400.06 283.81
  L 400.12 281.71
  L 400.12 281.71
  L 400.12 281.71
  L 399.93 279.60
  L 399.49 277.50
  L 399.45 277.05
  L 399.56 276.58
  L 399.75 275.98
  L 399.66 275.61
  L 399.28 275.46
  L 398.94 275.62
  L 398.39 276.69
  L 398.53 277.77
  L 398.94 279.29
  L 399.12 280.82
  L 399.02 282.72
  L 398.83 283.12
  L 398.39 283.24
  L 392.40 283.07
  L 392.22 283.13
  L 392.16 283.31
  L 392.16 283.64
  L 392.18 283.72
  L 392.28 283.76
  L 398.23 284.09
  L 398.65 284.22
  L 398.92 284.57
  L 398.96 285.28
  L 398.76 285.71
  L 398.32 285.88
  Z
  M 368.31 276.52
  L 368.36 276.67
  L 368.56 276.68
  L 368.64 276.63
  L 368.68 276.53
  L 368.63 276.37
  L 368.51 276.32
  L 368.36 276.36
  L 368.31 276.52
  Z
  M 390.48 277.33
  L 390.39 277.45
  L 390.40 277.83
  L 390.72 278.03
  L 391.13 277.97
  L 391.39 277.81
  L 391.55 277.52
  L 391.33 277.26
  L 390.85 277.14
  L 390.48 277.33
  Z
  M 390.37 279.23
  L 390.19 279.48
  L 390.20 279.54
  L 390.50 279.90
  L 390.81 279.54
  L 390.82 279.32
  L 390.75 279.24
  L 390.55 279.16
  L 390.37 279.23
  Z
  M 369.3720 285.1885
  L 369.6886 284.7630
  L 369.8596 283.7091
  L 369.7848 282.6439
  L 369.5080 282.1915
  L 369.1914 282.6170
  L 369.0204 283.6709
  L 369.0952 284.7361
  L 369.3720 285.1885
  Z
  M 390.16 282.49
  L 389.99 283.05
  L 390.27 283.55
  L 390.66 283.66
  L 390.97 283.40
  L 391.00 283.25
  L 390.92 282.78
  L 390.67 282.43
  L 390.65 282.41
  L 390.39 282.34
  L 390.16 282.49
  Z
  M 362.86 283.52
  L 362.52 283.18
  L 362.18 283.52
  L 362.52 283.86
  L 362.86 283.52
  Z
  M 362.26 285.42
  L 362.29 285.79
  L 362.70 285.78
  L 362.75 285.70
  L 362.64 285.33
  L 362.29 285.34
  L 362.26 285.42
  Z
  M 368.64 286.12
  L 368.46 286.48
  L 368.65 286.84
  L 368.78 286.90
  L 369.14 286.92
  L 369.34 286.83
  L 369.54 286.51
  L 369.42 286.16
  L 369.36 286.11
  L 369.01 285.99
  L 368.64 286.12
  Z
  M 369.8383 291.6180
  L 368.7353 291.1629
  L 365.9831 290.5656
  L 363.1940 290.1759
  L 362.0017 290.2220
  L 363.1047 290.6771
  L 365.8569 291.2744
  L 368.6460 291.6641
  L 369.8383 291.6180
  Z
  M 379.31 291.51
  L 379.37 291.67
  L 379.56 291.68
  L 379.64 291.64
  L 379.69 291.53
  L 379.65 291.37
  L 379.52 291.31
  L 379.36 291.34
  L 379.31 291.51
  Z
  M 382.19 291.42
  L 382.18 291.44
  L 382.35 291.79
  L 382.70 291.77
  L 382.71 291.48
  L 382.59 291.30
  L 382.55 291.28
  L 382.38 291.25
  L 382.19 291.42
  Z
  M 375.20 298.16
  L 375.86 297.52
  L 376.67 297.07
  L 377.59 296.82
  L 380.44 296.67
  L 381.75 296.67
  L 381.80 296.66
  L 381.94 296.48
  L 381.94 296.47
  L 381.94 296.46
  L 381.77 296.26
  L 380.01 296.14
  L 378.30 296.28
  L 378.30 296.28
  L 375.43 297.16
  L 375.36 297.20
  L 375.36 297.20
  L 375.07 297.51
  L 374.91 298.03
  L 374.93 298.38
  L 375.20 298.16
  Z
  M 384.29 296.65
  L 385.31 296.82
  L 385.70 296.59
  L 385.25 296.23
  L 384.64 296.12
  L 384.24 296.24
  L 384.17 296.30
  L 384.13 296.51
  L 384.29 296.65
  Z
  M 387.31 301.29
  L 386.45 301.73
  L 385.07 301.97
  L 383.60 302.35
  L 383.37 302.66
  L 383.73 302.72
  L 386.41 302.27
  L 388.00 301.56
  L 388.59 300.93
  L 388.83 300.27
  L 388.83 300.27
  L 388.83 300.27
  L 388.58 299.20
  L 387.57 298.05
  L 387.48 298.01
  L 387.37 298.06
  L 387.19 298.27
  L 387.14 298.36
  L 387.18 298.46
  L 387.79 299.53
  L 387.85 300.45
  L 387.31 301.29
  Z
  M 374.55 299.40
  L 374.25 298.94
  L 374.02 299.43
  L 373.99 300.12
  L 374.38 301.15
  L 375.35 302.15
  L 376.82 303.01
  L 378.58 303.64
  L 378.59 303.64
  L 378.68 303.58
  L 378.72 303.28
  L 378.69 303.11
  L 378.53 303.02
  L 377.52 302.76
  L 376.63 302.30
  L 376.63 302.30
  L 375.41 301.12
  L 374.55 299.40
  Z"
/>
<path fill="#ffffff" d="
  M 583.26 266.46
  L 588.98 259.68
  L 589.78 259.14
  L 590.75 259.22
  L 596.35 261.47
  L 601.99 264.01
  L 607.57 266.81
  L 613.21 269.91
  L 618.94 273.32
  L 624.78 277.07
  L 637.28 285.87
  L 637.58 286.27
  L 637.52 286.75
  L 633.55 296.13
  L 633.53 296.17
  L 633.32 296.31
  L 633.08 296.23
  L 629.17 292.92
  L 624.98 289.72
  L 620.51 286.62
  L 615.76 283.64
  L 607.97 279.15
  L 599.98 274.91
  L 591.80 270.90
  L 583.42 267.14
  L 583.37 267.11
  L 583.16 266.81
  L 583.26 266.46
  Z"
/>
<path fill="#ffffff" d="
  M 459.51 271.64
  L 469.85 269.23
  L 478.38 267.61
  L 484.02 267.03
  L 491.66 266.76
  L 496.22 266.46
  L 501.33 266.12
  L 504.75 266.25
  L 505.02 266.43
  L 505.04 266.74
  L 504.98 266.83
  L 504.19 267.45
  L 503.25 267.66
  L 494.78 267.99
  L 486.42 268.60
  L 478.19 269.49
  L 470.07 270.65
  L 456.54 272.80
  L 456.31 272.67
  L 456.31 272.65
  L 456.31 272.64
  L 456.44 272.40
  L 456.44 272.40
  L 459.51 271.64
  Z"
/>
<path fill="#ffffff" d="
  M 712.25 307.16
  L 712.07 310.92
  L 711.51 314.65
  L 710.60 318.31
  L 709.33 321.86
  L 707.72 325.26
  L 705.78 328.49
  L 703.53 331.52
  L 701.00 334.31
  L 698.21 336.84
  L 695.18 339.09
  L 691.95 341.03
  L 688.55 342.64
  L 685.00 343.91
  L 681.34 344.82
  L 677.61 345.38
  L 673.85 345.56
  L 670.09 345.38
  L 666.36 344.82
  L 662.70 343.91
  L 659.15 342.64
  L 655.75 341.03
  L 652.52 339.09
  L 649.49 336.84
  L 646.70 334.31
  L 644.17 331.52
  L 641.92 328.49
  L 639.98 325.26
  L 638.37 321.86
  L 637.10 318.31
  L 636.19 314.65
  L 635.63 310.92
  L 635.45 307.16
  L 635.63 303.40
  L 636.19 299.67
  L 637.10 296.01
  L 638.37 292.46
  L 639.98 289.06
  L 641.92 285.83
  L 644.17 282.80
  L 646.70 280.01
  L 649.49 277.48
  L 652.52 275.23
  L 655.75 273.29
  L 659.15 271.68
  L 662.70 270.41
  L 666.36 269.50
  L 670.09 268.94
  L 673.85 268.76
  L 677.61 268.94
  L 681.34 269.50
  L 685.00 270.41
  L 688.55 271.68
  L 691.95 273.29
  L 695.18 275.23
  L 698.21 277.48
  L 701.00 280.01
  L 703.53 282.80
  L 705.78 285.83
  L 707.72 289.06
  L 709.33 292.46
  L 710.60 296.01
  L 711.51 299.67
  L 712.07 303.40
  L 712.25 307.16
  Z
  M 690.97 301.00
  L 691.33 301.01
  L 691.56 301.30
  L 692.38 302.80
  L 693.49 303.75
  L 694.27 304.04
  L 695.16 304.15
  L 695.58 304.11
  L 696.40 303.74
  L 696.97 303.06
  L 697.20 302.20
  L 697.03 301.32
  L 696.11 298.93
  L 695.44 296.55
  L 695.03 294.16
  L 694.88 291.76
  L 694.88 291.76
  L 694.88 291.76
  L 694.91 290.33
  L 694.85 289.59
  L 694.57 289.01
  L 694.57 289.01
  L 694.09 288.58
  L 693.41 288.31
  L 689.57 287.53
  L 685.78 286.43
  L 683.72 286.05
  L 681.79 286.23
  L 680.67 286.62
  L 679.60 287.22
  L 677.61 289.07
  L 676.82 289.68
  L 675.84 289.90
  L 665.04 289.96
  L 661.52 290.24
  L 660.19 290.57
  L 659.15 291.03
  L 656.57 292.90
  L 655.62 293.93
  L 654.94 295.01
  L 654.42 296.32
  L 654.11 297.93
  L 654.13 302.66
  L 654.19 303.83
  L 654.03 310.65
  L 653.84 315.72
  L 654.02 318.91
  L 654.27 320.01
  L 654.27 320.01
  L 654.74 321.09
  L 655.40 322.10
  L 657.33 323.92
  L 658.25 324.42
  L 659.41 324.75
  L 662.44 324.92
  L 686.58 324.85
  L 687.80 324.63
  L 689.01 323.81
  L 689.97 322.36
  L 690.64 320.26
  L 690.90 317.87
  L 690.98 303.26
  L 690.40 301.49
  L 690.37 301.25
  L 690.57 301.11
  L 690.97 301.00
  Z"
/>
<path fill="#ffffff" d="
  M 430.51 291.30
  L 426.11 294.63
  L 422.40 297.81
  L 422.34 297.84
  L 422.17 297.67
  L 424.39 288.75
  L 424.63 288.24
  L 425.05 287.86
  L 426.87 287.10
  L 435.31 284.30
  L 443.82 281.81
  L 452.39 279.64
  L 461.02 277.80
  L 461.02 277.80
  L 470.41 276.16
  L 479.87 274.90
  L 491.52 274.03
  L 499.70 273.50
  L 505.68 272.83
  L 505.84 272.87
  L 505.89 273.15
  L 505.64 273.40
  L 487.60 280.40
  L 486.99 280.64
  L 477.94 284.65
  L 469.13 289.23
  L 460.54 294.39
  L 452.19 300.12
  L 451.77 300.25
  L 451.48 299.93
  L 450.00 296.82
  L 448.39 294.48
  L 446.65 292.92
  L 444.73 292.06
  L 444.68 292.05
  L 442.42 291.48
  L 438.08 290.45
  L 434.96 290.11
  L 432.48 290.39
  L 430.51 291.30
  Z"
/>
<path fill="#ffffff" d="
  M 454.17 319.79
  L 448.57 313.17
  L 448.33 312.62
  L 448.52 312.06
  L 450.24 309.79
  L 452.01 307.79
  L 454.41 305.53
  L 457.18 303.35
  L 465.57 297.94
  L 466.39 297.44
  L 475.20 292.40
  L 484.36 287.84
  L 493.86 283.76
  L 503.72 280.16
  L 511.79 277.71
  L 518.87 276.06
  L 519.78 275.95
  L 520.15 276.07
  L 520.15 276.07
  L 520.15 276.07
  L 519.98 276.41
  L 519.26 276.99
  L 513.56 281.19
  L 508.06 285.73
  L 502.78 290.61
  L 497.70 295.84
  L 495.14 298.24
  L 493.63 299.59
  L 492.78 299.98
  L 490.84 300.00
  L 488.24 299.63
  L 485.79 299.28
  L 484.05 299.31
  L 480.56 299.96
  L 478.05 300.82
  L 476.24 301.84
  L 474.33 303.30
  L 455.33 319.87
  L 455.32 319.87
  L 454.73 320.07
  L 454.17 319.79
  Z"
/>
<path fill="#ffffff" d="
  M 634.93 326.49
  L 629.08 328.86
  L 628.63 328.88
  L 628.26 328.62
  L 624.53 323.76
  L 619.75 318.36
  L 614.79 313.23
  L 609.71 308.32
  L 604.50 303.61
  L 599.16 299.12
  L 593.70 294.84
  L 588.11 290.77
  L 582.39 286.91
  L 576.55 283.26
  L 576.55 283.26
  L 576.55 283.26
  L 567.28 278.04
  L 567.03 277.77
  L 567.23 277.47
  L 568.66 276.67
  L 570.05 276.46
  L 570.05 276.46
  L 570.70 276.57
  L 579.17 279.68
  L 586.05 282.59
  L 592.78 285.78
  L 592.78 285.78
  L 602.57 291.08
  L 612.05 297.02
  L 621.20 303.60
  L 630.04 310.81
  L 631.33 312.19
  L 631.90 313.48
  L 632.08 314.93
  L 632.58 317.81
  L 635.29 325.69
  L 635.30 326.17
  L 634.93 326.49
  Z"
/>
<path fill="#ffffff" d="
  M 496.88 340.79
  L 500.59 337.88
  L 500.77 337.74
  L 501.32 337.12
  L 501.69 336.39
  L 502.15 334.23
  L 502.29 333.34
  L 503.09 328.03
  L 503.30 322.85
  L 502.91 317.92
  L 501.94 313.31
  L 501.47 312.03
  L 500.72 310.65
  L 498.29 307.40
  L 497.05 305.84
  L 496.84 305.16
  L 497.12 304.50
  L 504.38 297.01
  L 511.97 290.04
  L 519.90 283.59
  L 528.16 277.65
  L 528.78 277.44
  L 528.75 278.10
  L 507.31 343.06
  L 506.75 343.73
  L 505.87 343.83
  L 497.00 341.34
  L 496.92 341.30
  L 496.77 341.06
  L 496.88 340.79
  Z"
/>
<path fill="#ffffff" d="
  M 528.67 321.88
  L 528.62 322.87
  L 529.01 323.78
  L 548.05 349.45
  L 548.11 349.58
  L 548.03 349.93
  L 547.69 350.05
  L 539.43 349.06
  L 524.06 347.07
  L 518.34 346.05
  L 513.23 344.89
  L 513.21 344.88
  L 512.82 344.55
  L 512.78 344.04
  L 534.86 278.85
  L 535.17 278.15
  L 535.47 277.92
  L 535.47 277.92
  L 535.76 278.16
  L 536.04 278.87
  L 538.26 286.90
  L 540.19 294.66
  L 541.83 302.18
  L 543.17 309.43
  L 543.03 309.95
  L 542.55 310.18
  L 542.45 310.17
  L 540.72 310.02
  L 539.13 310.10
  L 537.59 310.39
  L 536.19 310.90
  L 534.94 311.59
  L 533.81 312.45
  L 531.78 314.77
  L 530.06 317.93
  L 528.67 321.88
  Z"
/>
<path fill="#ffffff" d="
  M 574.27 311.77
  L 574.34 311.98
  L 574.12 312.04
  L 549.83 310.93
  L 549.21 310.79
  L 548.68 310.45
  L 548.30 309.94
  L 548.12 309.34
  L 547.06 301.62
  L 545.74 294.05
  L 544.15 286.64
  L 542.31 279.38
  L 542.31 278.75
  L 542.91 278.97
  L 548.57 283.37
  L 553.66 287.98
  L 559.33 293.77
  L 564.66 299.67
  L 569.64 305.67
  L 574.27 311.77
  Z"
/>
<path fill="#ffffff" d="
  M 553.05 279.30
  L 553.43 279.29
  L 555.64 279.43
  L 557.96 279.91
  L 560.31 280.71
  L 562.81 281.86
  L 570.01 285.74
  L 577.01 289.93
  L 577.01 289.93
  L 577.01 289.93
  L 582.24 293.33
  L 587.34 296.93
  L 592.33 300.70
  L 597.21 304.65
  L 601.98 308.78
  L 606.63 313.10
  L 611.17 317.59
  L 615.59 322.27
  L 620.09 327.44
  L 622.96 331.34
  L 623.06 331.72
  L 622.76 331.98
  L 603.17 339.93
  L 602.44 340.12
  L 601.77 340.06
  L 601.18 339.77
  L 600.65 339.23
  L 588.79 323.30
  L 578.24 308.24
  L 572.15 300.08
  L 565.61 292.33
  L 559.44 285.84
  L 552.91 279.66
  L 552.75 279.40
  L 553.05 279.30
  Z"
/>
<path fill="#ffffff" d="
  M 687.86 293.90
  L 686.94 292.73
  L 685.19 291.69
  L 682.63 290.81
  L 679.77 290.24
  L 679.08 290.08
  L 678.81 289.84
  L 678.97 289.51
  L 679.55 289.11
  L 680.93 288.47
  L 682.34 288.12
  L 683.71 288.06
  L 685.19 288.28
  L 691.40 289.27
  L 692.07 289.48
  L 692.61 289.92
  L 692.95 290.53
  L 693.03 291.23
  L 692.97 294.08
  L 693.23 296.77
  L 693.79 299.31
  L 694.66 301.71
  L 695.00 302.65
  L 694.96 303.07
  L 694.96 303.07
  L 694.56 302.98
  L 693.80 302.38
  L 692.66 300.89
  L 690.77 298.29
  L 689.26 296.56
  L 688.86 296.10
  L 688.07 294.46
  L 687.86 293.90
  Z"
/>
<path fill="#ffffff" d="
  M 681.02 296.57
  L 676.03 296.95
  L 670.65 297.14
  L 657.68 297.03
  L 657.12 296.80
  L 656.84 296.26
  L 657.20 295.44
  L 658.41 294.08
  L 659.82 293.04
  L 659.82 293.04
  L 661.89 292.20
  L 664.28 291.90
  L 673.94 291.85
  L 679.04 291.98
  L 681.00 292.28
  L 682.86 292.85
  L 682.86 292.85
  L 684.36 293.54
  L 685.79 294.43
  L 685.94 294.71
  L 685.83 295.00
  L 685.77 295.04
  L 683.57 296.06
  L 681.02 296.57
  Z"
/>
<path fill="#ffffff" d="
  M 478.56 349.00
  L 478.29 349.78
  L 478.77 350.48
  L 480.27 351.72
  L 481.57 353.06
  L 482.67 354.50
  L 483.58 356.04
  L 483.58 356.04
  L 484.04 357.05
  L 484.12 357.54
  L 483.98 357.97
  L 482.25 360.56
  L 480.49 362.10
  L 478.80 362.80
  L 476.62 363.12
  L 467.45 363.53
  L 452.90 363.96
  L 440.10 364.31
  L 439.08 364.34
  L 435.80 364.26
  L 432.73 363.81
  L 430.31 363.05
  L 428.54 361.97
  L 426.58 359.68
  L 424.45 356.07
  L 424.01 354.95
  L 423.86 353.91
  L 423.96 352.88
  L 424.29 351.87
  L 425.83 349.14
  L 426.91 347.39
  L 427.15 346.29
  L 426.69 345.27
  L 424.67 343.09
  L 420.14 338.58
  L 413.05 332.04
  L 407.51 326.99
  L 404.55 324.02
  L 402.38 321.27
  L 402.27 320.89
  L 402.54 320.57
  L 404.78 319.03
  L 408.05 316.45
  L 417.65 308.16
  L 424.85 302.02
  L 431.32 297.06
  L 432.44 296.42
  L 433.69 295.98
  L 435.15 295.73
  L 436.68 295.67
  L 440.33 296.14
  L 444.14 297.32
  L 444.55 297.56
  L 444.90 297.95
  L 445.48 298.98
  L 446.22 300.92
  L 446.61 303.03
  L 446.51 304.37
  L 445.97 306.01
  L 445.04 307.87
  L 443.61 310.15
  L 443.17 310.82
  L 442.82 311.75
  L 443.18 313.42
  L 443.89 314.94
  L 444.95 316.35
  L 448.91 320.78
  L 452.40 325.02
  L 453.11 325.67
  L 454.00 326.05
  L 454.96 326.12
  L 455.89 325.87
  L 458.06 324.60
  L 460.27 322.77
  L 466.87 316.87
  L 477.70 307.61
  L 480.33 305.80
  L 481.60 305.24
  L 482.84 304.91
  L 485.06 304.66
  L 487.01 304.72
  L 488.79 305.13
  L 490.28 305.85
  L 491.76 307.12
  L 495.06 311.06
  L 497.01 314.02
  L 497.96 316.83
  L 498.42 320.57
  L 498.42 325.25
  L 497.93 331.27
  L 497.68 332.72
  L 497.27 333.70
  L 496.68 334.45
  L 495.80 335.16
  L 483.15 344.40
  L 480.67 346.58
  L 478.56 349.00
  Z"
/>
<path fill="#ffffff" d="
  M 662.82 303.61
  L 662.79 303.76
  L 663.05 304.20
  L 664.98 305.70
  L 666.98 306.97
  L 669.05 308.00
  L 671.20 308.79
  L 671.20 308.79
  L 672.50 309.15
  L 675.41 310.19
  L 676.47 310.75
  L 678.22 311.59
  L 679.49 311.69
  L 680.41 311.27
  L 680.83 310.88
  L 680.93 310.58
  L 680.70 310.37
  L 680.14 310.24
  L 677.02 309.48
  L 674.91 308.45
  L 674.81 308.37
  L 674.71 307.99
  L 674.95 307.68
  L 677.81 306.21
  L 680.60 304.53
  L 683.31 302.63
  L 685.95 300.52
  L 686.45 300.22
  L 687.27 300.11
  L 688.05 300.39
  L 688.62 300.99
  L 688.85 301.79
  L 689.09 309.80
  L 689.04 317.01
  L 688.78 319.04
  L 688.15 320.86
  L 687.21 322.19
  L 686.08 322.90
  L 685.32 323.04
  L 675.22 323.23
  L 659.30 323.07
  L 658.49 322.87
  L 657.85 322.33
  L 656.86 320.81
  L 656.12 319.20
  L 656.12 319.20
  L 655.55 317.17
  L 655.33 315.02
  L 655.44 307.87
  L 656.05 299.79
  L 656.41 299.11
  L 657.14 298.86
  L 660.28 298.83
  L 664.34 298.41
  L 670.00 297.92
  L 685.20 297.88
  L 686.47 298.02
  L 686.97 298.36
  L 686.97 298.36
  L 686.97 298.36
  L 686.70 298.90
  L 685.66 299.63
  L 682.62 301.55
  L 677.38 304.68
  L 675.32 305.61
  L 673.38 306.22
  L 672.19 306.41
  L 671.02 306.38
  L 671.02 306.38
  L 669.22 305.90
  L 663.58 303.33
  L 663.12 303.27
  L 662.82 303.61
  Z
  M 685.49 315.61
  L 686.25 315.06
  L 686.45 314.61
  L 686.03 314.24
  L 685.63 314.31
  L 685.08 314.90
  L 684.97 315.37
  L 685.09 315.56
  L 685.28 315.66
  L 685.49 315.61
  Z
  M 681.10 316.46
  L 680.98 316.99
  L 681.08 317.38
  L 681.22 317.53
  L 681.52 317.62
  L 681.72 317.41
  L 681.81 317.08
  L 681.61 316.41
  L 681.55 316.35
  L 681.30 316.29
  L 681.10 316.46
  Z
  M 657.35 319.41
  L 657.36 319.71
  L 657.38 319.73
  L 657.65 319.68
  L 657.60 319.40
  L 657.38 319.37
  L 657.35 319.41
  Z"
/>
<path fill="#ffffff" d="
  M 357.21 319.87
  L 355.99 321.60
  L 355.99 321.60
  L 355.99 321.60
  L 355.99 321.60
  L 351.65 328.00
  L 347.53 334.54
  L 343.60 341.22
  L 339.89 348.05
  L 336.38 355.03
  L 333.08 362.15
  L 329.99 369.42
  L 327.10 376.83
  L 322.52 390.25
  L 322.51 390.29
  L 322.09 390.71
  L 321.50 390.70
  L 320.93 390.45
  L 316.26 388.19
  L 314.85 387.23
  L 314.08 386.41
  L 313.90 386.00
  L 313.84 385.49
  L 314.11 383.29
  L 314.71 380.98
  L 316.07 376.90
  L 316.07 376.90
  L 316.07 376.90
  L 320.49 364.99
  L 325.54 353.29
  L 331.21 341.81
  L 337.52 330.54
  L 343.02 321.95
  L 345.77 318.16
  L 348.53 314.69
  L 349.25 314.24
  L 350.05 314.49
  L 357.14 319.46
  L 357.21 319.87
  Z"
/>
<path fill="#ffffff" d="
  M 628.46 384.79
  L 629.30 385.54
  L 630.38 385.89
  L 633.32 386.26
  L 638.61 386.77
  L 646.44 386.62
  L 653.89 386.09
  L 655.02 386.20
  L 655.95 386.70
  L 663.46 392.80
  L 669.15 397.75
  L 674.00 402.38
  L 678.24 406.92
  L 678.50 407.36
  L 678.54 407.85
  L 678.31 410.18
  L 677.55 416.41
  L 676.49 420.55
  L 675.76 422.19
  L 674.95 423.41
  L 674.01 424.36
  L 672.89 425.00
  L 672.04 425.25
  L 657.62 428.22
  L 639.85 432.41
  L 639.01 432.87
  L 638.63 433.78
  L 635.42 456.23
  L 635.07 457.84
  L 634.55 459.15
  L 634.25 459.50
  L 633.82 459.64
  L 629.74 459.26
  L 627.99 459.17
  L 626.32 459.39
  L 626.32 459.39
  L 624.22 460.19
  L 622.26 461.54
  L 618.11 465.28
  L 614.17 469.18
  L 610.43 473.26
  L 606.91 477.49
  L 605.75 478.98
  L 605.05 479.57
  L 603.98 479.97
  L 603.08 480.07
  L 602.02 479.95
  L 597.88 479.41
  L 593.77 479.40
  L 593.77 479.40
  L 590.02 479.86
  L 588.59 479.78
  L 587.35 479.05
  L 586.09 477.59
  L 584.96 475.80
  L 572.68 452.51
  L 572.25 451.88
  L 571.66 451.39
  L 570.96 451.07
  L 570.21 450.95
  L 562.29 450.58
  L 556.03 450.26
  L 551.27 450.25
  L 550.94 450.26
  L 546.88 450.27
  L 543.72 450.02
  L 541.28 449.48
  L 539.56 448.64
  L 515.11 430.50
  L 513.00 428.56
  L 512.38 427.68
  L 511.95 426.69
  L 511.77 425.65
  L 511.81 424.46
  L 512.23 422.48
  L 512.97 420.19
  L 513.85 418.15
  L 514.84 416.39
  L 515.90 415.00
  L 516.94 414.02
  L 518.03 413.40
  L 519.21 413.14
  L 519.47 413.14
  L 531.64 413.26
  L 542.99 412.73
  L 543.86 412.55
  L 544.53 412.19
  L 545.21 411.43
  L 545.66 410.24
  L 545.85 408.75
  L 545.83 406.71
  L 545.81 406.01
  L 545.91 404.29
  L 546.25 402.20
  L 547.70 396.94
  L 548.42 395.43
  L 549.45 394.36
  L 550.97 393.70
  L 552.54 393.33
  L 555.58 392.66
  L 558.04 392.32
  L 559.21 392.24
  L 561.02 392.20
  L 567.37 391.88
  L 569.56 391.49
  L 571.17 390.92
  L 573.37 389.65
  L 575.00 388.33
  L 576.13 386.92
  L 576.78 385.33
  L 576.91 384.03
  L 576.73 382.61
  L 576.23 381.16
  L 575.40 379.60
  L 569.49 371.02
  L 563.37 362.68
  L 560.01 358.27
  L 555.77 352.13
  L 550.28 344.27
  L 533.80 322.53
  L 533.33 321.52
  L 533.32 320.41
  L 533.72 319.07
  L 534.53 317.56
  L 535.68 316.18
  L 537.12 315.36
  L 539.34 314.95
  L 542.42 314.95
  L 546.75 315.36
  L 550.00 315.65
  L 570.23 316.07
  L 573.80 316.37
  L 577.88 317.16
  L 578.38 317.38
  L 578.72 317.71
  L 628.46 384.79
  Z"
/>
<path fill="#ffffff" d="
  M 357.31 343.83
  L 362.41 336.17
  L 369.43 326.27
  L 370.39 325.38
  L 371.39 325.06
  L 372.75 325.04
  L 376.03 325.44
  L 379.17 325.84
  L 381.48 325.90
  L 387.74 325.29
  L 395.02 323.98
  L 396.47 323.98
  L 397.59 324.47
  L 398.56 325.40
  L 402.51 330.05
  L 402.68 330.49
  L 402.52 330.93
  L 396.19 338.76
  L 390.08 346.87
  L 384.16 355.27
  L 378.46 363.95
  L 378.44 363.98
  L 378.06 364.21
  L 377.63 364.08
  L 356.40 346.17
  L 356.15 345.77
  L 356.31 345.31
  L 357.31 343.83
  Z"
/>
<path fill="#ffffff" d="
  M 633.52 333.82
  L 637.93 332.03
  L 638.96 331.92
  L 639.81 332.51
  L 642.12 335.16
  L 644.65 337.69
  L 647.29 339.98
  L 650.10 342.08
  L 652.91 343.86
  L 655.84 345.42
  L 658.77 346.69
  L 661.80 347.69
  L 663.12 348.23
  L 664.18 349.03
  L 664.93 350.04
  L 669.34 358.32
  L 673.33 366.74
  L 676.89 375.30
  L 680.03 384.00
  L 683.39 395.18
  L 686.07 406.59
  L 685.98 407.44
  L 685.29 407.95
  L 684.99 408.05
  L 684.42 408.13
  L 683.96 408.01
  L 683.61 407.68
  L 683.38 407.15
  L 682.64 405.26
  L 681.46 403.31
  L 679.84 401.30
  L 677.77 399.23
  L 667.84 390.39
  L 657.96 382.15
  L 656.62 380.77
  L 655.77 379.35
  L 651.24 367.40
  L 649.10 362.47
  L 647.04 358.25
  L 641.15 347.85
  L 633.12 335.11
  L 632.93 334.34
  L 633.52 333.82
  Z"
/>
<path fill="#ffffff" d="
  M 427.48 394.17
  L 415.99 388.18
  L 404.80 381.84
  L 393.91 375.15
  L 383.33 368.11
  L 382.96 367.54
  L 383.09 366.88
  L 388.59 358.60
  L 394.39 350.45
  L 400.48 342.42
  L 406.86 334.51
  L 407.32 334.27
  L 407.81 334.43
  L 407.81 334.43
  L 407.82 334.44
  L 421.38 346.73
  L 421.67 347.22
  L 421.51 347.75
  L 420.42 349.56
  L 419.62 351.24
  L 419.13 352.80
  L 418.94 354.23
  L 419.18 355.98
  L 419.99 357.96
  L 421.42 360.22
  L 423.72 363.17
  L 425.06 364.86
  L 425.90 365.81
  L 426.98 366.71
  L 428.15 367.44
  L 430.99 368.51
  L 434.53 369.08
  L 439.41 369.24
  L 443.07 369.34
  L 443.14 369.43
  L 443.13 369.45
  L 428.74 393.80
  L 428.18 394.24
  L 427.48 394.17
  Z"
/>
<path fill="#ffffff" d="
  M 650.73 380.29
  L 650.86 380.59
  L 650.82 380.95
  L 650.50 381.08
  L 641.48 381.35
  L 632.50 381.08
  L 632.08 381.03
  L 630.92 380.49
  L 629.88 379.40
  L 605.31 345.82
  L 605.22 345.43
  L 605.45 345.10
  L 605.51 345.07
  L 625.66 336.90
  L 626.69 336.78
  L 627.60 337.32
  L 629.93 340.25
  L 634.28 346.87
  L 638.32 353.76
  L 642.05 360.91
  L 645.48 368.32
  L 650.73 380.29
  Z"
/>
<path fill="#ffffff" d="
  M 486.01 349.51
  L 487.23 348.12
  L 488.61 346.96
  L 490.96 345.67
  L 491.43 345.64
  L 504.52 348.65
  L 505.11 349.02
  L 505.15 349.72
  L 486.51 416.07
  L 486.01 416.80
  L 485.11 416.82
  L 469.51 411.76
  L 456.38 407.07
  L 444.60 402.34
  L 433.96 397.48
  L 433.67 397.20
  L 433.72 396.79
  L 435.76 392.87
  L 438.94 387.31
  L 448.73 371.23
  L 449.58 370.05
  L 450.34 369.45
  L 451.11 369.24
  L 452.41 369.22
  L 453.59 369.23
  L 466.52 368.83
  L 479.98 367.93
  L 481.41 367.53
  L 482.91 366.63
  L 484.55 365.20
  L 486.08 363.46
  L 487.47 361.45
  L 488.52 359.45
  L 489.08 357.72
  L 489.13 356.31
  L 488.52 354.17
  L 487.57 352.22
  L 486.05 350.23
  L 485.90 349.87
  L 486.01 349.51
  Z"
/>
<path fill="#ffffff" d="
  M 702.09 413.63
  L 695.81 388.50
  L 693.39 380.42
  L 690.25 371.66
  L 686.40 362.23
  L 681.82 352.12
  L 681.22 350.53
  L 680.99 349.04
  L 681.10 348.65
  L 681.44 348.43
  L 689.08 346.31
  L 689.88 346.36
  L 690.47 346.91
  L 694.99 356.22
  L 699.05 365.71
  L 699.05 365.71
  L 699.05 365.71
  L 702.74 375.71
  L 705.94 385.91
  L 708.65 396.31
  L 710.85 406.91
  L 710.80 407.39
  L 710.50 407.77
  L 702.43 413.76
  L 702.39 413.78
  L 702.09 413.63
  Z"
/>
<path fill="#ffffff" d="
  M 491.84 417.95
  L 510.36 352.01
  L 510.64 351.44
  L 511.11 351.02
  L 511.70 350.79
  L 512.33 350.79
  L 521.78 352.40
  L 531.48 353.81
  L 541.42 355.02
  L 551.61 356.02
  L 552.47 356.36
  L 553.00 357.11
  L 553.42 358.52
  L 553.42 358.52
  L 553.95 361.12
  L 554.18 363.79
  L 555.18 387.19
  L 554.95 387.84
  L 554.33 388.15
  L 552.12 388.43
  L 550.13 388.98
  L 548.37 389.79
  L 546.82 390.86
  L 546.82 390.86
  L 546.82 390.86
  L 546.82 390.86
  L 545.35 392.37
  L 544.16 394.21
  L 543.25 396.38
  L 542.61 398.87
  L 541.25 407.66
  L 540.80 408.60
  L 539.83 408.99
  L 518.76 408.82
  L 516.55 409.05
  L 514.74 409.82
  L 513.88 410.48
  L 513.11 411.34
  L 511.25 413.97
  L 509.72 416.55
  L 508.52 419.09
  L 507.64 421.59
  L 507.39 422.07
  L 506.98 422.42
  L 506.47 422.58
  L 505.93 422.54
  L 492.25 418.69
  L 492.25 418.69
  L 491.89 418.40
  L 491.84 417.95
  Z"
/>
<path fill="#ffffff" d="
  M 353.69 351.22
  L 374.49 368.77
  L 374.92 369.51
  L 374.77 370.35
  L 371.44 376.31
  L 368.32 382.32
  L 365.41 388.37
  L 362.73 394.48
  L 360.26 400.63
  L 358.00 406.84
  L 355.96 413.09
  L 354.14 419.39
  L 349.56 438.02
  L 349.29 438.45
  L 348.80 438.31
  L 339.69 431.92
  L 339.31 431.50
  L 339.16 430.93
  L 339.16 428.28
  L 339.12 423.64
  L 338.84 420.42
  L 337.83 415.41
  L 336.34 410.56
  L 336.34 410.56
  L 335.05 407.35
  L 333.54 404.21
  L 333.32 402.86
  L 333.68 400.82
  L 337.89 386.69
  L 341.96 374.97
  L 344.53 368.64
  L 347.29 362.58
  L 350.24 356.79
  L 353.39 351.27
  L 353.40 351.26
  L 353.69 351.22
  Z"
/>
<path fill="#ffffff" d="
  M 559.94 366.96
  L 565.46 374.25
  L 571.16 382.82
  L 572.09 384.54
  L 572.15 385.18
  L 571.97 385.79
  L 571.57 386.28
  L 571.01 386.57
  L 570.99 386.58
  L 568.32 387.20
  L 565.70 387.60
  L 563.14 387.77
  L 560.62 387.72
  L 560.26 387.58
  L 560.13 387.21
  L 559.80 367.01
  L 559.83 366.89
  L 559.94 366.96
  Z"
/>
<path fill="#ffffff" d="
  M 380.29 372.98
  L 388.13 378.11
  L 395.52 382.93
  L 403.69 387.85
  L 413.12 393.16
  L 425.47 399.79
  L 425.76 400.09
  L 425.72 400.50
  L 422.15 408.78
  L 418.90 416.89
  L 415.98 424.77
  L 413.37 432.52
  L 411.04 440.17
  L 409.02 447.68
  L 407.26 455.18
  L 405.81 462.55
  L 404.65 468.67
  L 404.45 468.98
  L 404.06 468.95
  L 391.64 462.94
  L 379.48 456.55
  L 367.59 449.78
  L 355.97 442.63
  L 355.08 441.60
  L 354.91 440.26
  L 356.46 432.14
  L 358.47 423.90
  L 360.90 415.64
  L 363.77 407.29
  L 367.08 398.87
  L 370.82 390.38
  L 375.02 381.78
  L 379.63 373.15
  L 379.64 373.14
  L 379.93 372.92
  L 380.29 372.98
  Z"
/>
<path fill="#ffffff" d="
  M 302.6595 463.6821
  L 298.9741 463.9990
  L 295.2737 463.9437
  L 291.5938 463.5168
  L 287.9700 462.7225
  L 284.4371 461.5683
  L 281.0291 460.0655
  L 277.7788 458.2284
  L 274.7177 456.0748
  L 271.8750 453.6253
  L 269.2783 450.9037
  L 266.9525 447.9361
  L 264.9200 444.7510
  L 263.2005 441.3792
  L 261.8103 437.8531
  L 260.7631 434.2067
  L 260.0687 430.4751
  L 259.7340 426.6943
  L 259.7621 422.9006
  L 260.1528 419.1305
  L 260.9023 415.4205
  L 262.0033 411.8062
  L 263.4454 408.3224
  L 265.2146 405.0027
  L 267.2938 401.8791
  L 269.6630 398.9816
  L 272.2995 396.3381
  L 275.1778 393.9742
  L 278.2702 391.9124
  L 281.5470 390.1729
  L 284.9765 388.7721
  L 288.5257 387.7238
  L 292.1605 387.0379
  L 292.1605 387.0379
  L 295.8459 386.7210
  L 299.5463 386.7763
  L 303.2262 387.2032
  L 306.8500 387.9975
  L 310.3829 389.1517
  L 313.7909 390.6545
  L 317.0412 392.4916
  L 320.1023 394.6452
  L 322.9450 397.0947
  L 325.5417 399.8163
  L 327.8675 402.7839
  L 329.9000 405.9690
  L 331.6195 409.3408
  L 333.0097 412.8669
  L 334.0569 416.5133
  L 334.7513 420.2449
  L 335.0860 424.0257
  L 335.0579 427.8194
  L 334.6672 431.5895
  L 333.9177 435.2995
  L 332.8167 438.9138
  L 331.3746 442.3976
  L 329.6054 445.7173
  L 327.5262 448.8409
  L 325.1570 451.7384
  L 322.5205 454.3819
  L 319.6422 456.7458
  L 316.5498 458.8076
  L 313.2730 460.5471
  L 309.8435 461.9479
  L 306.2943 462.9962
  L 302.6595 463.6821
  Z
  M 288.06 440.60
  L 290.87 441.74
  L 292.13 441.94
  L 293.29 441.91
  L 293.68 441.79
  L 294.14 441.45
  L 295.83 439.59
  L 295.98 439.44
  L 296.78 438.97
  L 297.71 438.86
  L 298.60 439.14
  L 299.30 439.75
  L 300.02 440.49
  L 300.84 440.92
  L 300.84 440.92
  L 301.94 441.03
  L 302.36 440.90
  L 302.70 440.56
  L 302.75 440.48
  L 303.81 438.13
  L 304.27 435.41
  L 304.28 435.37
  L 304.42 435.16
  L 304.67 435.14
  L 306.47 435.65
  L 308.08 435.90
  L 309.50 435.89
  L 310.73 435.63
  L 311.50 435.05
  L 311.79 434.13
  L 311.79 411.43
  L 311.79 411.37
  L 311.39 410.50
  L 310.50 410.14
  L 282.25 410.14
  L 281.45 410.47
  L 281.12 411.28
  L 281.12 442.04
  L 281.29 442.75
  L 281.76 443.30
  L 282.44 443.58
  L 283.16 443.52
  L 283.16 443.52
  L 283.60 443.29
  L 287.13 440.66
  L 287.60 440.48
  L 288.06 440.60
  Z"
/>
<path fill="#ffffff" d="
  M 484.74 423.11
  L 480.34 440.99
  L 476.45 458.30
  L 473.07 475.03
  L 470.20 491.19
  L 470.02 491.67
  L 469.66 492.03
  L 469.19 492.23
  L 468.68 492.22
  L 468.63 492.21
  L 455.06 488.36
  L 440.97 483.73
  L 426.18 478.25
  L 410.45 471.84
  L 409.90 471.38
  L 409.81 470.68
  L 411.81 460.11
  L 414.23 449.68
  L 417.05 439.38
  L 420.29 429.23
  L 420.29 429.23
  L 420.29 429.23
  L 425.13 416.19
  L 430.68 403.39
  L 431.15 402.95
  L 431.80 402.97
  L 444.22 408.24
  L 457.12 413.25
  L 470.51 418.00
  L 484.39 422.49
  L 484.69 422.73
  L 484.74 423.11
  Z"
/>
<path fill="#ffffff" d="
  M 761.68 468.69
  L 758.69 472.41
  L 755.26 475.48
  L 750.86 478.43
  L 746.37 480.77
  L 741.76 482.48
  L 737.06 483.58
  L 732.25 484.05
  L 727.34 483.91
  L 722.32 483.15
  L 717.20 481.76
  L 714.16 480.62
  L 711.12 479.15
  L 708.20 477.39
  L 705.40 475.35
  L 702.72 473.03
  L 700.83 470.62
  L 697.12 465.21
  L 694.51 460.71
  L 693.62 458.62
  L 693.01 456.63
  L 692.16 452.44
  L 691.67 448.28
  L 691.55 444.29
  L 691.80 440.37
  L 692.42 436.58
  L 693.41 432.91
  L 694.75 429.46
  L 696.46 426.17
  L 698.50 423.12
  L 700.91 420.24
  L 703.62 417.62
  L 706.70 415.21
  L 711.35 412.20
  L 715.64 410.02
  L 719.74 408.60
  L 723.84 407.86
  L 724.33 407.82
  L 730.39 407.58
  L 735.66 407.83
  L 740.35 408.59
  L 744.47 409.86
  L 747.69 411.30
  L 750.75 412.97
  L 753.62 414.86
  L 756.30 416.98
  L 758.74 419.28
  L 760.95 421.79
  L 762.86 424.41
  L 764.53 427.22
  L 766.27 431.01
  L 767.57 435.07
  L 768.49 439.55
  L 768.94 443.94
  L 768.92 448.26
  L 768.43 452.49
  L 768.43 452.49
  L 768.43 452.49
  L 767.46 456.66
  L 766.01 460.76
  L 764.08 464.76
  L 761.68 468.69
  Z
  M 726.09 459.99
  L 729.46 456.27
  L 729.99 455.97
  L 730.53 456.21
  L 734.28 459.84
  L 735.33 460.72
  L 736.77 461.57
  L 740.97 463.25
  L 741.57 463.46
  L 742.40 463.65
  L 743.63 463.60
  L 744.82 463.19
  L 746.06 462.41
  L 747.18 461.36
  L 748.31 459.92
  L 749.21 458.35
  L 749.85 456.71
  L 750.11 455.22
  L 750.11 451.54
  L 749.86 447.09
  L 749.84 447.04
  L 749.78 447.01
  L 749.51 446.98
  L 749.45 447.00
  L 749.35 447.21
  L 748.71 455.46
  L 748.55 456.17
  L 748.21 456.60
  L 747.67 456.76
  L 746.95 456.64
  L 745.99 456.10
  L 744.52 454.94
  L 743.51 453.69
  L 743.08 452.18
  L 742.72 448.43
  L 742.53 448.03
  L 742.10 448.05
  L 741.67 448.23
  L 741.40 448.68
  L 742.09 454.01
  L 742.16 454.35
  L 742.43 454.85
  L 743.67 456.26
  L 745.08 457.40
  L 745.70 457.96
  L 745.95 458.57
  L 745.95 458.57
  L 745.84 459.21
  L 745.38 459.90
  L 744.27 461.13
  L 743.58 461.72
  L 742.83 462.00
  L 742.83 462.00
  L 742.83 462.00
  L 742.04 461.98
  L 741.20 461.66
  L 737.05 459.02
  L 733.42 455.87
  L 733.42 455.87
  L 732.55 454.95
  L 732.25 454.25
  L 732.70 453.65
  L 732.82 453.56
  L 733.49 452.76
  L 733.92 451.53
  L 734.07 449.98
  L 733.98 447.88
  L 733.95 447.49
  L 734.00 446.77
  L 734.27 446.26
  L 734.27 446.26
  L 734.27 446.26
  L 734.76 445.95
  L 735.48 445.85
  L 747.64 445.85
  L 748.63 445.71
  L 749.35 445.28
  L 749.35 445.28
  L 749.35 445.28
  L 749.78 444.57
  L 749.93 443.56
  L 749.83 439.64
  L 749.46 436.55
  L 749.33 435.36
  L 749.45 434.52
  L 749.95 432.26
  L 749.88 431.25
  L 749.59 430.39
  L 748.78 429.32
  L 747.57 428.50
  L 745.86 427.81
  L 743.55 427.21
  L 741.82 427.07
  L 740.32 427.42
  L 740.32 427.42
  L 739.48 427.90
  L 738.73 428.57
  L 738.04 428.93
  L 737.28 428.76
  L 736.66 428.37
  L 734.71 427.18
  L 733.15 426.49
  L 731.67 426.18
  L 730.35 426.27
  L 729.53 426.54
  L 727.05 428.02
  L 726.14 428.88
  L 725.45 429.82
  L 725.12 430.06
  L 724.72 429.98
  L 724.72 429.98
  L 724.68 429.95
  L 721.71 427.77
  L 718.57 426.30
  L 717.67 426.22
  L 716.83 426.57
  L 712.90 429.48
  L 712.16 430.38
  L 711.92 431.51
  L 711.94 432.03
  L 711.90 435.46
  L 711.65 437.06
  L 711.06 441.76
  L 711.21 446.10
  L 711.23 446.22
  L 711.63 446.67
  L 712.22 446.65
  L 713.48 446.20
  L 714.97 445.95
  L 720.12 445.86
  L 723.70 445.89
  L 725.86 445.41
  L 727.00 445.07
  L 727.55 445.21
  L 727.76 445.74
  L 727.73 445.90
  L 727.32 447.54
  L 727.20 449.18
  L 727.20 449.18
  L 727.34 450.69
  L 727.73 452.19
  L 728.10 453.73
  L 728.02 454.85
  L 727.58 455.72
  L 726.63 456.81
  L 725.92 457.57
  L 724.34 459.06
  L 722.59 460.19
  L 722.59 460.19
  L 720.80 460.94
  L 718.85 461.38
  L 717.94 461.38
  L 717.07 461.10
  L 716.31 460.59
  L 715.74 459.87
  L 715.66 459.69
  L 715.91 458.83
  L 716.21 458.47
  L 717.10 457.80
  L 717.96 457.13
  L 718.33 456.54
  L 718.61 455.64
  L 719.84 449.79
  L 720.25 449.12
  L 720.40 449.05
  L 721.39 448.70
  L 721.75 448.46
  L 721.36 448.26
  L 720.09 448.14
  L 718.70 448.32
  L 718.34 448.52
  L 718.20 448.91
  L 717.87 454.97
  L 717.70 455.85
  L 717.30 456.50
  L 716.60 456.95
  L 715.63 457.14
  L 715.19 457.00
  L 714.29 456.54
  L 713.63 455.90
  L 713.63 455.90
  L 713.63 455.90
  L 713.21 455.08
  L 713.04 454.08
  L 712.78 448.97
  L 712.51 447.77
  L 711.96 448.86
  L 711.16 452.01
  L 710.93 454.66
  L 711.27 456.68
  L 712.18 458.18
  L 713.04 458.85
  L 714.17 459.32
  L 714.58 459.57
  L 714.79 459.97
  L 715.26 461.37
  L 715.96 462.52
  L 716.84 463.38
  L 717.90 463.93
  L 718.77 464.12
  L 719.71 464.10
  L 720.72 463.87
  L 721.77 463.40
  L 723.36 462.23
  L 724.99 461.01
  L 725.40 460.92
  L 725.68 461.24
  L 726.16 462.42
  L 726.67 462.96
  L 729.20 463.80
  L 731.67 463.94
  L 733.70 463.52
  L 735.68 462.60
  L 736.00 462.26
  L 736.02 461.79
  L 735.82 461.39
  L 735.48 461.18
  L 735.14 461.36
  L 734.94 461.59
  L 734.16 462.00
  L 733.18 462.08
  L 733.18 462.08
  L 733.18 462.08
  L 731.43 462.02
  L 729.67 461.68
  L 727.90 461.06
  L 726.12 460.17
  L 726.11 460.16
  L 726.09 459.99
  Z"
/>
<path fill="#ffffff" d="
  M 303.07 432.57
  L 302.14 434.94
  L 301.90 437.10
  L 301.60 437.80
  L 300.85 437.98
  L 300.62 437.89
  L 298.14 436.45
  L 297.31 436.15
  L 296.42 436.15
  L 295.59 436.45
  L 294.91 437.02
  L 292.65 439.70
  L 292.62 439.73
  L 292.01 440.00
  L 291.40 439.74
  L 289.67 438.37
  L 288.80 438.03
  L 287.94 437.92
  L 287.05 438.05
  L 286.16 438.41
  L 284.39 439.87
  L 284.36 439.90
  L 283.89 440.08
  L 283.44 439.85
  L 283.13 439.28
  L 283.08 438.94
  L 282.80 425.54
  L 282.94 412.80
  L 283.25 412.10
  L 283.96 411.81
  L 307.98 411.81
  L 308.81 411.98
  L 309.52 412.45
  L 309.99 413.15
  L 310.16 413.98
  L 310.16 432.74
  L 310.04 433.31
  L 309.70 433.79
  L 309.21 434.08
  L 308.63 434.16
  L 308.51 434.14
  L 305.89 433.45
  L 303.86 432.38
  L 303.42 432.25
  L 303.07 432.57
  Z
  M 301.33 418.46
  L 301.06 417.09
  L 300.28 415.92
  L 299.11 415.14
  L 297.74 414.87
  L 296.37 415.14
  L 295.20 415.92
  L 294.42 417.09
  L 294.15 418.46
  L 294.42 419.83
  L 295.20 421.00
  L 296.37 421.78
  L 297.74 422.05
  L 299.11 421.78
  L 300.28 421.00
  L 301.06 419.83
  L 301.33 418.46
  Z"
/>
<path fill="#ffffff" d="
  M 668.36 473.88
  L 669.33 466.53
  L 669.78 459.17
  L 669.80 458.25
  L 670.12 431.79
  L 670.49 430.83
  L 671.40 430.36
  L 673.09 430.06
  L 674.62 429.57
  L 675.97 428.90
  L 677.16 428.06
  L 678.60 426.56
  L 679.72 424.75
  L 680.55 422.56
  L 681.06 420.09
  L 681.66 416.23
  L 682.08 414.97
  L 682.80 414.17
  L 683.63 413.87
  L 684.68 413.89
  L 685.62 413.93
  L 686.70 413.99
  L 687.42 414.29
  L 687.82 414.71
  L 688.12 415.37
  L 690.28 423.98
  L 690.66 425.95
  L 690.74 427.46
  L 690.55 428.94
  L 690.06 430.70
  L 688.91 434.76
  L 688.14 438.81
  L 687.75 442.84
  L 687.73 446.85
  L 687.73 446.85
  L 687.73 446.85
  L 688.04 450.46
  L 688.67 454.06
  L 689.60 457.65
  L 690.84 461.22
  L 690.96 462.25
  L 688.16 479.68
  L 687.86 480.13
  L 687.32 480.18
  L 687.21 480.13
  L 684.30 478.60
  L 681.86 477.61
  L 679.32 476.82
  L 676.68 476.25
  L 673.94 475.89
  L 671.14 475.38
  L 668.64 474.42
  L 668.36 473.88
  Z"
/>
<path fill="#ffffff" d="
  M 491.83 424.50
  L 496.66 425.77
  L 503.46 427.27
  L 505.20 427.82
  L 506.49 428.70
  L 507.29 429.73
  L 508.38 431.42
  L 509.33 432.43
  L 522.42 442.21
  L 531.52 448.78
  L 536.59 452.40
  L 538.24 453.48
  L 540.12 454.30
  L 542.26 454.83
  L 544.76 455.11
  L 548.21 455.20
  L 549.99 455.22
  L 550.06 455.22
  L 550.76 455.61
  L 550.96 456.38
  L 543.17 504.96
  L 542.69 505.78
  L 541.77 506.05
  L 528.10 504.54
  L 514.03 502.47
  L 499.55 499.82
  L 484.66 496.61
  L 480.10 495.45
  L 476.47 494.30
  L 475.79 493.73
  L 475.62 492.86
  L 478.32 477.23
  L 481.57 461.08
  L 485.42 444.14
  L 490.10 425.48
  L 490.34 424.99
  L 490.75 424.63
  L 491.26 424.45
  L 491.80 424.49
  L 491.80 424.49
  L 491.83 424.50
  Z"
/>
<path fill="#ffffff" d="
  M 732.87 431.86
  L 728.73 430.46
  L 728.12 429.98
  L 728.42 429.26
  L 728.77 428.89
  L 729.43 428.32
  L 730.15 428.00
  L 730.95 427.92
  L 731.82 428.10
  L 735.51 429.35
  L 736.13 429.83
  L 735.82 430.56
  L 735.20 431.26
  L 734.13 431.94
  L 732.87 431.86
  Z"
/>
<path fill="#ffffff" d="
  M 719.26 443.28
  L 719.94 441.45
  L 720.02 439.82
  L 719.57 438.34
  L 718.58 436.83
  L 717.00 435.28
  L 714.49 433.33
  L 714.01 432.97
  L 713.13 432.11
  L 712.88 431.30
  L 712.88 431.30
  L 713.26 430.54
  L 714.28 429.83
  L 716.70 429.02
  L 716.94 428.98
  L 718.43 428.92
  L 719.81 429.18
  L 719.81 429.18
  L 721.11 429.77
  L 722.31 430.68
  L 724.36 432.99
  L 725.84 435.55
  L 725.84 435.55
  L 726.48 437.31
  L 726.89 439.16
  L 727.07 441.12
  L 727.03 443.18
  L 726.69 443.87
  L 725.96 444.14
  L 719.66 443.97
  L 719.30 443.78
  L 719.22 443.38
  L 719.26 443.28
  Z"
/>
<path fill="#ffffff" d="
  M 741.55 439.12
  L 742.29 442.66
  L 742.29 443.17
  L 742.08 443.64
  L 741.69 443.98
  L 741.20 444.14
  L 741.06 444.14
  L 734.68 443.96
  L 734.04 443.72
  L 733.85 443.08
  L 734.08 434.80
  L 734.29 434.28
  L 737.41 431.32
  L 738.87 430.26
  L 740.28 429.48
  L 741.65 429.03
  L 743.18 428.85
  L 744.88 428.94
  L 746.73 429.31
  L 747.18 429.52
  L 747.51 429.89
  L 747.91 430.80
  L 748.00 431.64
  L 747.65 432.76
  L 746.69 433.88
  L 745.22 434.91
  L 743.27 435.85
  L 742.43 436.39
  L 741.82 437.17
  L 741.52 438.12
  L 741.55 439.12
  Z"
/>
<path fill="#ffffff" d="
  M 651.09 460.73
  L 648.94 460.20
  L 646.63 459.89
  L 644.18 459.81
  L 641.58 459.94
  L 640.91 459.86
  L 640.33 459.51
  L 639.94 458.95
  L 639.82 458.28
  L 639.84 458.08
  L 643.07 437.97
  L 643.65 436.80
  L 644.78 436.17
  L 664.13 432.12
  L 664.19 432.11
  L 664.73 432.28
  L 664.98 432.80
  L 665.08 446.71
  L 664.62 460.64
  L 664.16 466.44
  L 663.38 471.83
  L 663.14 472.62
  L 662.78 472.96
  L 662.78 472.96
  L 662.29 472.84
  L 661.69 472.28
  L 654.88 463.67
  L 653.09 461.79
  L 652.11 461.16
  L 651.09 460.73
  Z"
/>
<path fill="#ffffff" d="
  M 731.61 438.77
  L 731.98 440.99
  L 731.93 443.60
  L 731.71 444.08
  L 731.22 443.89
  L 730.78 443.52
  L 730.39 442.95
  L 730.44 442.27
  L 730.61 440.90
  L 730.26 439.22
  L 729.38 437.30
  L 728.10 435.36
  L 726.99 433.59
  L 726.83 432.96
  L 726.94 432.50
  L 726.94 432.50
  L 727.31 432.21
  L 727.94 432.09
  L 729.99 432.34
  L 731.61 433.31
  L 731.92 433.62
  L 732.06 434.07
  L 732.01 436.07
  L 731.63 437.85
  L 731.54 438.34
  L 731.61 438.77
  Z"
/>
<path fill="#ffffff" d="
  M 717.22 443.99
  L 713.54 443.99
  L 713.04 443.82
  L 712.88 443.31
  L 713.09 435.66
  L 713.11 435.50
  L 713.52 435.02
  L 714.15 435.03
  L 716.09 436.36
  L 717.39 438.03
  L 717.39 438.03
  L 717.39 438.03
  L 717.87 439.20
  L 718.11 440.49
  L 718.12 441.91
  L 717.89 443.45
  L 717.67 443.85
  L 717.22 443.99
  Z"
/>
<path fill="#ffffff" d="
  M 748.49 442.24
  L 748.48 443.01
  L 748.21 443.56
  L 748.21 443.56
  L 747.70 443.89
  L 746.93 444.00
  L 744.48 444.00
  L 743.81 443.90
  L 743.33 443.62
  L 743.32 443.61
  L 743.04 443.13
  L 742.94 442.46
  L 742.94 438.11
  L 743.30 436.92
  L 744.26 436.14
  L 746.04 435.42
  L 746.20 435.37
  L 746.73 435.35
  L 747.23 435.55
  L 747.59 435.94
  L 747.77 436.44
  L 748.49 442.24
  Z"
/>
<path fill="#ffffff" d="
  M 348.45 445.94
  L 347.56 451.65
  L 346.84 458.51
  L 346.03 472.50
  L 346.02 485.93
  L 346.32 492.43
  L 346.81 498.79
  L 347.50 505.00
  L 348.39 511.08
  L 348.71 515.89
  L 348.56 516.25
  L 348.18 516.34
  L 348.06 516.29
  L 347.61 515.99
  L 346.72 515.12
  L 346.04 513.97
  L 343.32 507.66
  L 340.82 501.07
  L 338.62 494.40
  L 336.64 487.44
  L 334.93 480.33
  L 333.44 472.92
  L 332.18 465.18
  L 331.15 457.14
  L 331.04 454.10
  L 331.55 451.59
  L 332.26 450.09
  L 335.12 444.43
  L 337.75 437.56
  L 337.77 437.51
  L 338.02 437.31
  L 338.34 437.37
  L 347.60 443.86
  L 348.33 444.78
  L 348.45 445.94
  Z"
/>
<path fill="#ffffff" d="
  M 732.09 445.09
  L 732.37 445.19
  L 732.57 445.58
  L 732.55 448.81
  L 732.45 450.37
  L 732.18 451.70
  L 731.77 452.58
  L 731.30 452.89
  L 731.24 452.89
  L 730.77 452.58
  L 730.38 451.69
  L 730.12 450.36
  L 730.03 448.79
  L 730.05 445.56
  L 730.12 445.31
  L 730.53 445.09
  L 732.09 445.09
  Z"
/>
<path fill="#ffffff" d="
  M 402.68 545.22
  L 390.88 539.50
  L 379.23 533.38
  L 367.74 526.84
  L 356.40 519.90
  L 355.66 519.21
  L 355.26 518.25
  L 354.25 513.01
  L 353.43 507.63
  L 352.79 502.13
  L 352.35 496.50
  L 352.30 495.68
  L 352.30 495.68
  L 351.87 484.48
  L 351.87 473.26
  L 352.31 462.02
  L 353.18 450.75
  L 353.64 448.65
  L 353.68 448.55
  L 353.99 448.17
  L 354.46 448.28
  L 365.40 454.90
  L 376.84 461.30
  L 388.75 467.47
  L 401.16 473.42
  L 402.71 474.37
  L 403.62 475.46
  L 403.75 476.34
  L 402.84 482.26
  L 402.14 490.32
  L 401.65 498.32
  L 401.38 506.25
  L 401.31 514.11
  L 401.46 521.90
  L 401.81 529.62
  L 402.38 537.28
  L 403.16 544.87
  L 403.16 544.97
  L 402.98 545.21
  L 402.68 545.22
  Z"
/>
<path fill="#ffffff" d="
  M 582.69 480.87
  L 584.15 482.72
  L 585.71 483.75
  L 587.48 484.07
  L 594.29 484.34
  L 601.25 485.16
  L 601.70 485.44
  L 601.82 485.95
  L 601.82 485.96
  L 601.32 489.82
  L 601.22 493.79
  L 601.52 497.80
  L 601.65 498.84
  L 602.20 502.52
  L 602.99 504.97
  L 603.69 506.26
  L 604.65 507.59
  L 604.75 507.86
  L 604.47 507.96
  L 590.12 508.13
  L 576.12 507.97
  L 562.45 507.50
  L 549.12 506.70
  L 549.12 506.70
  L 548.80 506.53
  L 548.70 506.19
  L 549.68 498.95
  L 552.91 479.15
  L 556.13 457.67
  L 556.44 456.27
  L 556.85 455.57
  L 557.22 455.35
  L 558.06 455.18
  L 559.04 455.35
  L 559.52 455.45
  L 560.00 455.45
  L 565.51 455.00
  L 566.89 455.09
  L 568.03 455.54
  L 568.03 455.54
  L 568.81 456.19
  L 569.43 457.10
  L 577.53 472.10
  L 582.69 480.87
  Z"
/>
<path fill="#ffffff" d="
  M 353.25 569.89
  L 352.41 569.96
  L 351.63 569.83
  L 350.93 569.47
  L 350.29 568.91
  L 347.39 565.40
  L 340.09 554.32
  L 333.43 542.80
  L 327.45 530.90
  L 322.17 518.65
  L 317.68 506.29
  L 313.94 493.69
  L 312.37 487.34
  L 310.99 480.95
  L 308.86 468.27
  L 308.85 467.31
  L 309.13 466.52
  L 309.13 466.52
  L 309.68 465.88
  L 310.52 465.40
  L 315.98 463.19
  L 316.82 462.98
  L 317.48 463.11
  L 317.48 463.11
  L 317.48 463.11
  L 317.94 463.59
  L 318.22 464.42
  L 320.98 478.82
  L 323.67 490.34
  L 327.07 501.80
  L 331.10 513.03
  L 335.82 524.15
  L 341.21 535.09
  L 347.26 545.89
  L 353.92 556.40
  L 361.22 566.72
  L 361.54 567.31
  L 361.55 567.78
  L 361.55 567.78
  L 361.24 568.12
  L 360.60 568.35
  L 353.25 569.89
  Z"
/>
<path fill="#ffffff" d="
  M 632.38 515.16
  L 632.60 514.34
  L 632.49 513.69
  L 632.04 513.22
  L 631.26 512.91
  L 612.44 508.57
  L 611.50 508.28
  L 610.68 507.82
  L 609.81 506.93
  L 607.70 503.74
  L 606.74 501.61
  L 606.02 497.82
  L 605.68 494.12
  L 605.74 490.51
  L 606.19 486.99
  L 606.53 485.83
  L 607.20 484.65
  L 608.35 483.28
  L 609.18 482.34
  L 615.74 474.88
  L 623.32 467.07
  L 624.56 466.02
  L 625.76 465.36
  L 627.63 464.89
  L 630.51 464.77
  L 631.69 464.76
  L 640.95 464.84
  L 648.36 465.45
  L 649.57 465.79
  L 650.70 466.43
  L 651.81 467.35
  L 652.91 468.60
  L 658.32 475.68
  L 658.95 476.41
  L 658.95 476.41
  L 660.28 477.56
  L 661.85 478.49
  L 663.67 479.18
  L 665.72 479.65
  L 679.25 482.01
  L 680.86 482.49
  L 682.22 483.14
  L 683.32 483.96
  L 684.16 484.95
  L 684.16 484.95
  L 684.16 484.95
  L 684.78 486.20
  L 685.10 487.64
  L 685.13 489.28
  L 684.87 491.11
  L 683.42 496.47
  L 681.31 501.84
  L 674.53 516.80
  L 670.01 525.95
  L 665.02 535.06
  L 659.56 544.12
  L 653.62 553.14
  L 652.31 554.62
  L 650.70 555.71
  L 648.99 556.23
  L 647.43 556.13
  L 646.54 555.77
  L 645.68 555.17
  L 644.89 554.07
  L 643.59 551.67
  L 642.57 549.93
  L 641.20 548.07
  L 637.71 544.40
  L 633.13 540.62
  L 626.87 536.27
  L 626.65 536.13
  L 626.36 535.78
  L 626.31 535.33
  L 627.53 529.83
  L 628.94 524.63
  L 630.56 519.74
  L 632.38 515.16
  Z"
/>
<path fill="#ffffff" d="
  M 468.66 498.86
  L 459.55 566.13
  L 459.54 566.19
  L 459.20 566.65
  L 458.64 566.71
  L 447.04 562.95
  L 435.60 558.92
  L 424.33 554.61
  L 413.22 550.02
  L 410.02 548.50
  L 409.42 547.93
  L 409.13 547.15
  L 407.74 534.10
  L 406.83 519.34
  L 406.76 508.51
  L 407.38 492.51
  L 407.59 488.01
  L 408.03 482.61
  L 408.87 477.55
  L 408.88 477.52
  L 409.07 477.30
  L 409.36 477.30
  L 427.41 484.65
  L 441.95 490.09
  L 455.42 494.54
  L 468.13 498.07
  L 468.55 498.36
  L 468.66 498.86
  Z"
/>
<path fill="#ffffff" d="
  M 603.31 614.81
  L 614.52 607.32
  L 623.17 601.15
  L 629.23 596.47
  L 635.09 591.59
  L 640.75 586.52
  L 646.22 581.25
  L 646.22 581.25
  L 652.39 574.82
  L 658.29 568.12
  L 663.93 561.15
  L 669.29 553.92
  L 674.60 546.00
  L 679.60 537.59
  L 684.29 528.75
  L 688.64 519.48
  L 692.60 509.90
  L 696.19 499.97
  L 699.40 489.71
  L 702.21 479.20
  L 702.67 478.50
  L 703.48 478.65
  L 711.70 483.40
  L 711.94 483.67
  L 711.97 484.03
  L 708.97 494.79
  L 704.76 507.52
  L 701.51 516.17
  L 697.89 524.66
  L 697.89 524.66
  L 697.89 524.66
  L 697.89 524.66
  L 694.47 531.84
  L 690.79 538.91
  L 686.83 545.85
  L 682.59 552.66
  L 678.09 559.36
  L 673.31 565.93
  L 668.26 572.38
  L 662.94 578.70
  L 657.41 584.78
  L 651.54 590.73
  L 645.46 596.40
  L 639.04 601.95
  L 632.34 607.30
  L 625.27 612.53
  L 617.79 617.67
  L 609.93 622.69
  L 609.28 622.81
  L 608.73 622.46
  L 603.26 615.08
  L 603.26 615.07
  L 603.31 614.81
  Z"
/>
<path fill="#ffffff" d="
  M 520.25 577.50
  L 506.38 575.95
  L 492.72 573.96
  L 479.26 571.50
  L 466.02 568.60
  L 465.46 568.22
  L 465.29 567.57
  L 467.22 550.59
  L 469.35 533.81
  L 471.67 517.21
  L 474.18 500.80
  L 474.54 500.12
  L 475.32 500.04
  L 493.51 504.10
  L 510.11 507.27
  L 525.81 509.67
  L 540.86 511.35
  L 541.41 511.65
  L 541.57 512.25
  L 541.56 512.29
  L 539.71 520.68
  L 537.67 528.96
  L 535.45 537.16
  L 533.04 545.26
  L 530.45 553.27
  L 527.67 561.18
  L 524.71 568.99
  L 521.56 576.71
  L 521.04 577.32
  L 520.25 577.50
  Z"
/>
<path fill="#ffffff" d="
  M 528.52 574.51
  L 534.56 558.32
  L 539.66 542.74
  L 543.89 527.60
  L 547.24 512.84
  L 547.60 512.28
  L 548.24 512.09
  L 561.83 512.92
  L 575.87 513.40
  L 590.34 513.53
  L 605.26 513.32
  L 607.98 513.36
  L 608.81 513.76
  L 609.07 514.64
  L 609.04 514.77
  L 606.40 524.06
  L 603.37 533.17
  L 599.95 542.10
  L 596.15 550.86
  L 596.15 550.86
  L 596.15 550.86
  L 596.15 550.86
  L 593.05 557.30
  L 589.74 563.64
  L 586.21 569.88
  L 582.46 576.02
  L 581.80 576.66
  L 580.92 576.94
  L 567.81 577.69
  L 554.62 578.07
  L 541.35 578.07
  L 528.00 577.70
  L 527.72 577.59
  L 527.69 577.27
  L 528.52 574.51
  Z"
/>
<path fill="#ffffff" d="
  M 621.52 536.28
  L 621.70 537.69
  L 622.54 538.82
  L 629.00 543.89
  L 636.56 549.42
  L 637.07 549.84
  L 637.76 550.64
  L 638.26 551.54
  L 639.07 554.21
  L 639.68 556.33
  L 640.31 557.56
  L 641.14 558.59
  L 641.14 558.59
  L 642.82 559.80
  L 644.99 560.53
  L 645.27 560.63
  L 645.59 560.94
  L 645.74 561.35
  L 645.69 561.79
  L 645.44 562.16
  L 643.10 563.89
  L 640.67 564.93
  L 625.50 568.82
  L 609.14 572.39
  L 599.63 574.09
  L 590.59 575.28
  L 590.21 575.13
  L 590.10 574.74
  L 590.15 574.61
  L 596.19 563.66
  L 601.19 553.52
  L 605.42 543.62
  L 609.01 533.70
  L 614.56 515.91
  L 615.16 515.14
  L 616.12 514.99
  L 625.19 517.08
  L 625.23 517.09
  L 625.77 517.52
  L 625.82 518.21
  L 624.32 522.89
  L 623.10 527.47
  L 622.17 531.93
  L 621.52 536.28
  Z"
/>
<path fill="#ffffff" d="
  M 405.62 559.22
  L 408.10 570.02
  L 411.28 580.70
  L 415.14 591.24
  L 419.70 601.65
  L 420.15 602.75
  L 420.26 603.50
  L 419.99 604.11
  L 419.35 603.92
  L 407.48 595.62
  L 406.39 594.72
  L 405.63 593.72
  L 401.23 586.77
  L 399.03 583.83
  L 396.82 581.22
  L 394.53 578.84
  L 392.09 576.65
  L 389.59 574.73
  L 386.92 572.98
  L 382.69 570.79
  L 378.22 569.10
  L 377.30 568.63
  L 376.34 567.78
  L 374.24 564.97
  L 368.23 554.68
  L 363.60 545.44
  L 361.72 541.05
  L 360.12 536.79
  L 358.82 532.69
  L 357.80 528.76
  L 357.68 527.81
  L 357.87 527.35
  L 357.87 527.35
  L 358.36 527.39
  L 359.15 527.93
  L 361.84 529.76
  L 371.79 535.72
  L 382.03 541.40
  L 392.54 546.79
  L 403.34 551.89
  L 404.22 552.59
  L 404.67 553.62
  L 405.62 559.22
  Z"
/>
<path fill="#ffffff" d="
  M 459.11 573.41
  L 458.44 584.66
  L 458.04 595.96
  L 457.92 607.29
  L 458.09 618.66
  L 457.98 619.04
  L 457.61 619.19
  L 456.07 619.09
  L 454.25 618.59
  L 444.09 614.75
  L 434.34 610.70
  L 432.77 609.84
  L 431.31 608.70
  L 429.90 607.27
  L 428.48 605.46
  L 425.78 600.97
  L 422.80 594.48
  L 422.53 593.85
  L 418.96 584.96
  L 415.86 575.98
  L 413.22 566.90
  L 411.04 557.72
  L 410.68 555.95
  L 410.68 555.89
  L 410.78 555.69
  L 411.01 555.64
  L 413.41 556.39
  L 425.12 561.12
  L 436.50 565.33
  L 447.53 569.00
  L 458.22 572.14
  L 458.92 572.59
  L 459.11 573.41
  Z"
/>
<path fill="#ffffff" d="
  M 336.99 633.04
  L 334.93 630.07
  L 333.17 626.99
  L 331.67 623.74
  L 330.50 620.41
  L 329.62 617.00
  L 329.06 613.56
  L 328.81 610.01
  L 328.87 606.48
  L 329.26 603.00
  L 329.95 599.59
  L 330.96 596.26
  L 332.27 593.05
  L 333.86 589.99
  L 335.75 587.10
  L 337.86 584.46
  L 340.23 582.02
  L 343.58 579.26
  L 347.33 576.88
  L 351.34 574.99
  L 355.71 573.53
  L 359.19 572.73
  L 362.65 572.20
  L 366.09 571.95
  L 369.48 571.99
  L 372.79 572.32
  L 376.03 572.93
  L 379.11 573.82
  L 382.09 574.99
  L 384.59 576.23
  L 387.01 577.68
  L 389.26 579.30
  L 391.43 581.12
  L 394.67 584.36
  L 397.44 587.80
  L 399.75 591.42
  L 401.60 595.24
  L 401.60 595.24
  L 401.60 595.24
  L 402.92 598.98
  L 403.82 602.89
  L 404.33 606.97
  L 404.43 611.21
  L 403.98 616.76
  L 402.91 621.90
  L 401.21 626.65
  L 398.88 631.00
  L 398.88 631.00
  L 396.15 634.70
  L 392.86 638.05
  L 389.03 641.05
  L 384.65 643.71
  L 380.84 645.49
  L 376.94 646.80
  L 372.89 647.69
  L 368.81 648.11
  L 364.26 648.05
  L 359.78 647.43
  L 355.40 646.27
  L 351.17 644.57
  L 347.18 642.38
  L 343.43 639.69
  L 340.05 636.59
  L 336.99 633.04
  Z
  M 379.47 615.20
  L 382.23 614.87
  L 385.31 614.46
  L 387.57 613.63
  L 387.65 613.58
  L 388.03 613.22
  L 388.22 612.73
  L 388.21 612.20
  L 387.99 611.72
  L 383.27 605.36
  L 383.09 604.64
  L 383.47 604.01
  L 383.48 604.01
  L 384.38 603.19
  L 384.94 602.23
  L 384.94 602.23
  L 384.94 602.23
  L 385.15 601.24
  L 385.07 600.13
  L 384.91 599.75
  L 384.61 599.49
  L 378.85 596.16
  L 378.22 595.53
  L 377.99 594.67
  L 377.99 591.48
  L 377.96 591.23
  L 377.74 590.73
  L 377.32 590.38
  L 376.80 590.24
  L 376.26 590.34
  L 372.46 592.21
  L 368.90 594.42
  L 368.90 594.42
  L 368.47 594.73
  L 366.70 595.58
  L 364.89 595.93
  L 355.64 596.03
  L 347.40 596.34
  L 346.66 596.66
  L 346.30 597.38
  L 346.07 601.34
  L 346.30 604.74
  L 346.66 606.14
  L 347.32 607.08
  L 348.32 607.58
  L 349.75 607.72
  L 368.24 607.93
  L 370.43 607.74
  L 372.49 607.09
  L 374.88 605.85
  L 377.26 604.62
  L 379.30 604.00
  L 380.86 603.85
  L 380.91 603.85
  L 381.62 604.18
  L 381.87 604.92
  L 382.10 606.32
  L 382.59 607.06
  L 383.94 608.48
  L 384.94 610.04
  L 385.19 610.87
  L 385.14 611.70
  L 384.79 612.41
  L 384.20 612.87
  L 384.13 612.90
  L 382.25 613.02
  L 349.01 613.08
  L 347.49 613.30
  L 346.95 613.59
  L 347.43 613.96
  L 350.15 614.86
  L 352.46 615.24
  L 352.92 615.47
  L 353.10 615.95
  L 352.93 621.85
  L 353.25 622.68
  L 354.07 623.03
  L 354.07 623.03
  L 354.08 623.03
  L 356.05 623.03
  L 356.55 623.18
  L 356.82 623.64
  L 357.96 627.79
  L 358.40 628.79
  L 359.02 629.48
  L 359.74 629.89
  L 360.56 630.09
  L 362.61 629.92
  L 365.14 628.92
  L 367.26 627.42
  L 367.96 627.10
  L 368.71 627.28
  L 369.57 627.85
  L 372.26 629.45
  L 373.39 629.83
  L 374.34 629.91
  L 376.06 629.61
  L 377.37 628.85
  L 377.37 628.85
  L 377.37 628.85
  L 377.37 628.85
  L 377.99 628.12
  L 378.45 627.19
  L 378.86 624.78
  L 378.92 615.85
  L 379.06 615.41
  L 379.47 615.20
  Z"
/>
<path fill="#ffffff" d="
  M 587.66 606.13
  L 584.43 605.15
  L 580.45 604.45
  L 576.43 604.16
  L 573.07 604.31
  L 570.81 604.53
  L 570.24 604.48
  L 569.95 604.28
  L 569.95 604.28
  L 569.95 603.94
  L 570.24 603.44
  L 578.17 592.67
  L 584.89 582.88
  L 585.03 582.69
  L 585.79 582.12
  L 586.88 581.82
  L 598.31 580.15
  L 609.81 578.08
  L 621.40 575.61
  L 633.07 572.74
  L 633.64 572.86
  L 633.87 573.39
  L 633.83 573.59
  L 632.89 574.87
  L 628.30 579.16
  L 623.51 583.33
  L 618.50 587.37
  L 613.29 591.30
  L 607.86 595.11
  L 602.22 598.80
  L 596.37 602.36
  L 590.31 605.81
  L 589.17 606.25
  L 588.11 606.26
  L 587.66 606.13
  Z"
/>
<path fill="#ffffff" d="
  M 465.23 574.07
  L 478.16 577.00
  L 491.30 579.48
  L 504.64 581.53
  L 518.19 583.13
  L 518.52 583.29
  L 518.49 583.66
  L 512.83 595.51
  L 506.79 606.45
  L 503.63 611.57
  L 500.37 616.46
  L 497.02 621.13
  L 493.57 625.56
  L 493.12 625.95
  L 492.28 626.17
  L 491.05 626.02
  L 490.40 625.91
  L 480.82 624.35
  L 466.83 621.39
  L 465.28 620.86
  L 464.41 620.14
  L 463.99 619.13
  L 463.86 617.43
  L 463.83 616.61
  L 463.49 602.35
  L 463.80 585.80
  L 464.14 580.06
  L 464.77 574.38
  L 464.77 574.36
  L 464.94 574.12
  L 465.23 574.07
  Z"
/>
<path fill="#ffffff" d="
  M 577.33 583.11
  L 577.45 583.17
  L 577.45 583.31
  L 570.34 593.57
  L 561.90 604.65
  L 560.21 606.12
  L 557.60 607.60
  L 553.50 609.77
  L 549.77 612.26
  L 546.42 615.07
  L 543.43 618.19
  L 543.32 618.32
  L 537.70 624.94
  L 537.47 625.17
  L 536.89 625.52
  L 536.16 625.70
  L 528.21 626.48
  L 519.82 626.97
  L 510.98 627.19
  L 501.70 627.13
  L 501.07 626.79
  L 500.96 626.09
  L 501.05 625.89
  L 501.29 625.54
  L 502.02 624.49
  L 502.02 624.49
  L 508.24 615.09
  L 514.03 605.40
  L 519.42 595.42
  L 524.38 585.15
  L 525.14 584.28
  L 526.26 583.97
  L 539.10 584.12
  L 551.89 584.03
  L 564.64 583.69
  L 577.33 583.11
  Z"
/>
<path fill="#ffffff" d="
  M 377.15 598.25
  L 379.38 598.83
  L 381.39 599.31
  L 382.51 600.12
  L 382.86 600.83
  L 382.73 601.54
  L 382.08 601.86
  L 381.84 601.82
  L 380.59 601.39
  L 380.08 601.31
  L 379.61 601.38
  L 378.22 601.93
  L 376.97 602.67
  L 376.27 603.21
  L 374.83 604.22
  L 373.42 604.83
  L 371.59 605.14
  L 369.40 605.03
  L 368.96 604.88
  L 368.60 604.54
  L 368.21 603.69
  L 367.96 602.57
  L 367.89 599.50
  L 368.21 597.85
  L 368.94 596.57
  L 368.94 596.57
  L 369.66 595.91
  L 374.76 592.63
  L 375.98 592.03
  L 376.65 592.06
  L 376.65 592.06
  L 376.65 592.06
  L 376.77 592.72
  L 376.34 594.02
  L 375.97 596.02
  L 375.97 596.69
  L 376.19 597.33
  L 376.59 597.87
  L 377.15 598.25
  Z"
/>
<path fill="#ffffff" d="
  M 367.23 604.59
  L 367.31 604.99
  L 366.79 605.72
  L 365.77 605.82
  L 357.45 606.17
  L 349.31 606.19
  L 348.61 606.08
  L 348.10 605.76
  L 348.10 605.76
  L 348.10 605.76
  L 347.80 605.26
  L 347.70 604.55
  L 347.70 599.50
  L 347.78 598.99
  L 348.38 598.17
  L 349.35 597.85
  L 365.06 597.85
  L 365.72 598.12
  L 365.99 598.78
  L 366.25 601.65
  L 367.08 604.27
  L 367.08 604.27
  L 367.23 604.59
  Z"
/>
<path fill="#ffffff" d="
  M 596.0597 679.2602
  L 592.7832 681.1730
  L 589.3341 682.7542
  L 585.7456 683.9885
  L 582.0523 684.8641
  L 578.2897 685.3726
  L 574.4941 685.5090
  L 570.7020 685.2720
  L 566.9499 684.6639
  L 563.2741 683.6907
  L 559.7098 682.3615
  L 556.2914 680.6893
  L 553.0518 678.6902
  L 550.0223 676.3833
  L 547.2319 673.7910
  L 544.7077 670.9382
  L 542.4738 667.8523
  L 540.5518 664.5631
  L 538.9602 661.1023
  L 537.7144 657.5031
  L 536.8263 653.8003
  L 536.3045 650.0295
  L 536.1539 646.2270
  L 536.3762 642.4294
  L 536.9691 638.6734
  L 537.9268 634.9950
  L 539.2403 631.4298
  L 540.8968 628.0120
  L 542.8804 624.7745
  L 545.1720 621.7486
  L 547.7494 618.9634
  L 550.5880 616.4457
  L 553.6603 614.2198
  L 553.6603 614.2198
  L 556.9368 612.3070
  L 560.3859 610.7258
  L 563.9744 609.4915
  L 567.6677 608.6159
  L 571.4303 608.1074
  L 575.2259 607.9710
  L 579.0180 608.2080
  L 582.7701 608.8161
  L 586.4459 609.7893
  L 590.0102 611.1185
  L 593.4286 612.7907
  L 596.6682 614.7898
  L 599.6977 617.0967
  L 602.4881 619.6890
  L 605.0123 622.5418
  L 607.2462 625.6277
  L 609.1682 628.9169
  L 610.7598 632.3777
  L 612.0056 635.9769
  L 612.8937 639.6797
  L 613.4155 643.4505
  L 613.5661 647.2530
  L 613.3438 651.0506
  L 612.7509 654.8066
  L 611.7932 658.4850
  L 610.4797 662.0502
  L 608.8232 665.4680
  L 606.8396 668.7055
  L 604.5480 671.7314
  L 601.9706 674.5166
  L 599.1320 677.0343
  L 596.0597 679.2602
  Z
  M 555.04 643.27
  L 555.20 642.31
  L 555.51 641.93
  L 555.96 642.13
  L 556.55 642.90
  L 557.46 644.19
  L 558.47 645.27
  L 559.57 646.14
  L 560.77 646.82
  L 560.77 646.82
  L 560.77 646.82
  L 560.77 646.82
  L 562.38 647.37
  L 564.13 647.60
  L 566.03 647.53
  L 568.07 647.14
  L 569.82 646.61
  L 571.18 645.98
  L 572.22 645.23
  L 573.02 644.25
  L 573.48 643.22
  L 573.94 640.51
  L 573.64 638.02
  L 573.64 638.02
  L 572.63 635.83
  L 570.92 633.83
  L 570.31 633.33
  L 569.00 632.61
  L 567.40 632.13
  L 565.59 631.90
  L 563.12 631.85
  L 562.11 631.85
  L 560.95 631.94
  L 558.92 632.66
  L 557.08 634.10
  L 555.69 636.07
  L 554.88 638.34
  L 554.03 643.84
  L 553.96 646.07
  L 554.10 648.10
  L 554.59 650.61
  L 555.46 653.27
  L 557.71 659.67
  L 558.06 660.40
  L 558.48 660.68
  L 558.95 660.51
  L 559.49 659.90
  L 560.18 659.28
  L 560.81 659.11
  L 561.56 659.19
  L 561.98 659.43
  L 562.11 659.88
  L 562.11 664.68
  L 562.18 664.88
  L 562.36 664.94
  L 562.66 664.94
  L 562.86 664.87
  L 562.94 664.67
  L 562.97 659.93
  L 562.99 659.78
  L 563.65 659.26
  L 565.31 658.87
  L 567.06 658.48
  L 568.23 657.96
  L 569.77 656.80
  L 571.09 655.46
  L 571.09 655.46
  L 571.09 655.46
  L 572.03 654.17
  L 572.81 652.75
  L 573.90 649.51
  L 573.83 649.14
  L 573.51 648.95
  L 573.46 648.95
  L 572.98 648.95
  L 572.53 649.11
  L 572.27 649.52
  L 571.73 651.35
  L 570.97 652.91
  L 569.99 654.17
  L 568.86 655.03
  L 566.33 656.72
  L 565.80 656.95
  L 565.22 656.97
  L 564.68 656.76
  L 564.25 656.37
  L 563.42 655.25
  L 563.04 654.98
  L 562.58 655.08
  L 561.52 655.83
  L 560.63 656.71
  L 560.63 656.71
  L 560.10 657.41
  L 559.92 657.60
  L 559.18 657.75
  L 558.63 657.23
  L 555.60 648.21
  L 555.10 645.78
  L 555.03 643.38
  L 555.04 643.27
  Z
  M 588.58 659.09
  L 590.08 660.46
  L 590.80 660.95
  L 591.41 661.02
  L 591.41 661.02
  L 591.91 660.66
  L 592.29 659.87
  L 594.65 652.78
  L 595.80 648.82
  L 596.02 647.09
  L 596.00 645.52
  L 595.37 641.22
  L 594.34 637.82
  L 592.89 635.26
  L 592.00 634.27
  L 590.96 633.44
  L 589.84 632.81
  L 588.57 632.35
  L 585.75 631.97
  L 583.82 632.07
  L 582.13 632.43
  L 580.67 633.05
  L 579.44 633.93
  L 579.44 633.93
  L 578.41 635.11
  L 577.64 636.57
  L 577.01 638.97
  L 577.03 641.38
  L 577.67 643.55
  L 578.91 645.44
  L 580.08 646.49
  L 581.53 647.30
  L 581.61 647.34
  L 582.78 647.65
  L 583.99 647.71
  L 587.47 647.12
  L 588.67 646.85
  L 589.97 646.47
  L 591.51 645.71
  L 593.41 644.39
  L 594.19 643.82
  L 594.58 643.76
  L 594.85 644.06
  L 594.86 644.22
  L 594.19 647.77
  L 594.19 647.77
  L 592.84 652.44
  L 590.95 656.98
  L 590.53 657.64
  L 590.01 658.00
  L 589.36 658.12
  L 588.53 657.87
  L 588.20 657.55
  L 588.06 657.15
  L 587.89 655.85
  L 587.53 655.12
  L 586.72 655.19
  L 585.22 655.75
  L 583.91 656.02
  L 582.68 656.01
  L 581.63 655.72
  L 580.47 654.97
  L 579.42 653.67
  L 578.55 651.91
  L 577.71 649.49
  L 577.44 649.11
  L 577.00 648.96
  L 576.56 648.96
  L 576.24 649.07
  L 576.16 649.41
  L 576.70 651.93
  L 577.75 654.14
  L 577.75 654.14
  L 579.13 655.84
  L 580.91 657.28
  L 581.53 657.61
  L 582.63 657.89
  L 584.14 657.93
  L 584.97 657.92
  L 585.45 658.03
  L 585.84 658.32
  L 586.09 658.75
  L 586.14 659.24
  L 586.14 659.24
  L 586.12 659.34
  L 585.97 661.86
  L 586.18 662.97
  L 586.58 664.00
  L 586.58 664.00
  L 586.58 664.00
  L 586.85 664.48
  L 587.25 665.00
  L 587.54 665.13
  L 587.54 665.13
  L 587.73 664.87
  L 587.82 664.22
  L 588.02 659.32
  L 588.17 658.91
  L 588.58 659.09
  Z"
/>
<path fill="#ffffff" d="
  M 532.21 648.96
  L 521.97 649.90
  L 514.79 650.09
  L 501.73 649.92
  L 491.08 649.44
  L 481.82 648.49
  L 471.25 646.81
  L 461.04 644.72
  L 451.18 642.24
  L 441.67 639.35
  L 432.41 636.04
  L 423.50 632.33
  L 414.79 628.16
  L 406.44 623.60
  L 406.07 623.22
  L 406.04 622.69
  L 408.10 613.77
  L 408.40 613.38
  L 408.89 613.35
  L 408.96 613.38
  L 416.00 617.01
  L 423.12 620.41
  L 430.31 623.58
  L 437.57 626.52
  L 443.60 628.74
  L 449.70 630.75
  L 455.89 632.56
  L 462.15 634.17
  L 468.50 635.57
  L 474.92 636.77
  L 481.42 637.77
  L 488.00 638.57
  L 494.54 639.09
  L 504.14 639.59
  L 513.04 639.68
  L 524.79 639.20
  L 532.46 638.84
  L 533.03 639.02
  L 533.20 639.57
  L 532.95 648.17
  L 532.73 648.70
  L 532.21 648.96
  Z"
/>
<path fill="#ffffff" d="
  M 369.75 625.45
  L 368.89 624.97
  L 367.92 624.81
  L 366.95 625.00
  L 366.11 625.52
  L 365.80 625.80
  L 364.43 626.96
  L 363.30 627.68
  L 362.21 628.06
  L 361.28 628.06
  L 360.02 627.44
  L 359.52 626.75
  L 359.18 625.64
  L 359.12 625.32
  L 358.73 623.65
  L 358.35 622.67
  L 358.23 622.26
  L 358.28 621.50
  L 358.67 620.69
  L 361.32 616.05
  L 362.00 615.27
  L 362.99 614.98
  L 376.29 614.98
  L 376.88 615.22
  L 377.12 615.80
  L 377.12 615.80
  L 377.12 615.80
  L 377.12 626.23
  L 377.12 626.27
  L 376.96 626.99
  L 376.53 627.60
  L 375.89 627.99
  L 375.16 628.11
  L 373.06 627.70
  L 371.70 626.99
  L 370.06 625.71
  L 369.75 625.45
  Z"
/>
<path fill="#ffffff" d="
  M 359.45 616.60
  L 356.99 619.95
  L 356.31 620.85
  L 355.76 621.08
  L 355.76 621.08
  L 355.76 621.08
  L 355.34 620.66
  L 355.05 619.57
  L 355.01 616.69
  L 355.16 616.12
  L 355.50 615.63
  L 356.00 615.30
  L 356.58 615.17
  L 360.26 615.01
  L 361.08 615.19
  L 360.59 615.89
  L 360.15 616.10
  L 359.78 616.29
  L 359.45 616.60
  Z"
/>
<ellipse fill="#ffffff" cx="0.00" cy="0.00" transform="translate(564.64,639.59) rotate(13.0)" rx="7.68" ry="6.25"/>
<path fill="#ffffff" d="
  M 578.71 638.58
  L 579.35 636.52
  L 580.47 635.03
  L 581.47 634.39
  L 582.64 634.01
  L 586.08 633.75
  L 588.49 634.05
  L 590.47 634.95
  L 591.97 636.41
  L 593.11 638.50
  L 593.27 639.09
  L 593.29 639.96
  L 593.08 640.83
  L 591.95 642.64
  L 589.83 644.49
  L 587.48 645.68
  L 586.23 645.95
  L 585.00 645.99
  L 583.74 645.81
  L 582.56 645.40
  L 581.03 644.43
  L 579.82 643.07
  L 579.01 641.47
  L 578.60 639.62
  L 578.71 638.58
  Z"
/>
<path fill="#ffffff" d="
  M 422.76 789.81
  L 424.25 788.13
  L 425.06 786.42
  L 425.41 784.59
  L 425.29 782.74
  L 424.67 780.96
  L 423.31 779.11
  L 421.43 777.76
  L 416.80 775.42
  L 410.88 773.78
  L 405.22 771.97
  L 399.83 770.01
  L 394.71 767.88
  L 391.74 766.36
  L 389.16 764.58
  L 386.96 762.54
  L 385.15 760.25
  L 385.15 760.25
  L 385.15 760.25
  L 383.67 757.61
  L 382.61 754.69
  L 381.96 751.50
  L 381.71 748.04
  L 382.01 743.30
  L 382.99 738.97
  L 383.74 736.94
  L 384.68 734.99
  L 385.76 733.22
  L 387.02 731.55
  L 388.73 729.73
  L 390.71 728.08
  L 393.76 726.02
  L 396.71 724.41
  L 399.55 723.26
  L 402.29 722.57
  L 408.31 721.83
  L 414.15 721.71
  L 419.83 722.22
  L 425.35 723.36
  L 425.35 723.36
  L 425.35 723.36
  L 429.77 724.78
  L 434.09 726.62
  L 438.29 728.89
  L 442.37 731.59
  L 442.66 732.02
  L 442.58 732.54
  L 434.38 746.74
  L 434.36 746.78
  L 433.97 747.02
  L 433.53 746.90
  L 431.12 745.07
  L 428.64 743.44
  L 426.06 742.01
  L 423.41 740.77
  L 423.41 740.77
  L 419.64 739.41
  L 415.72 738.41
  L 411.58 737.93
  L 409.67 737.97
  L 407.81 738.22
  L 406.23 738.64
  L 404.75 739.26
  L 403.48 740.05
  L 402.35 741.05
  L 401.44 742.19
  L 400.69 743.55
  L 400.13 745.40
  L 400.15 747.08
  L 400.86 748.99
  L 402.35 750.75
  L 404.62 752.33
  L 407.45 753.57
  L 425.41 759.38
  L 428.69 760.59
  L 431.79 762.07
  L 434.74 763.83
  L 437.34 765.77
  L 439.57 767.86
  L 441.35 770.02
  L 442.79 772.38
  L 443.75 774.73
  L 444.43 777.18
  L 444.85 779.45
  L 445.03 781.57
  L 444.95 783.51
  L 444.23 787.82
  L 443.03 791.75
  L 441.35 795.28
  L 439.20 798.42
  L 439.20 798.42
  L 439.20 798.42
  L 439.20 798.42
  L 436.79 800.97
  L 433.97 803.19
  L 430.74 805.07
  L 427.11 806.63
  L 424.16 807.57
  L 421.16 808.28
  L 418.02 808.78
  L 414.85 809.04
  L 411.63 809.08
  L 408.41 808.90
  L 405.10 808.49
  L 401.82 807.86
  L 398.51 807.00
  L 395.25 805.93
  L 392.06 804.65
  L 388.96 803.19
  L 385.92 801.52
  L 383.01 799.67
  L 380.23 797.66
  L 377.60 795.48
  L 377.33 794.96
  L 377.47 794.38
  L 385.80 782.51
  L 385.86 782.42
  L 386.41 781.97
  L 387.08 781.78
  L 387.78 781.86
  L 388.39 782.22
  L 391.20 784.51
  L 391.20 784.51
  L 394.40 786.65
  L 397.82 788.48
  L 401.47 790.01
  L 405.34 791.23
  L 407.80 791.75
  L 410.51 792.08
  L 413.18 792.21
  L 415.68 792.12
  L 417.92 791.82
  L 419.81 791.35
  L 421.41 790.69
  L 422.76 789.81
  Z"
/>
<path fill="#ffffff" d="
  M 530.11 738.19
  L 525.14 743.54
  L 519.80 748.29
  L 518.87 748.77
  L 517.88 748.80
  L 516.64 748.36
  L 515.30 747.51
  L 513.45 746.02
  L 511.83 744.70
  L 508.74 742.59
  L 505.57 740.95
  L 502.40 739.82
  L 499.15 739.15
  L 496.40 738.97
  L 493.58 739.12
  L 490.70 739.60
  L 487.75 740.44
  L 485.14 741.48
  L 482.76 742.74
  L 480.61 744.23
  L 478.69 745.94
  L 477.24 747.58
  L 475.95 749.39
  L 473.87 753.25
  L 472.40 757.35
  L 471.52 761.68
  L 471.30 766.08
  L 471.72 770.38
  L 472.79 774.56
  L 474.45 778.42
  L 476.74 782.02
  L 477.43 782.89
  L 479.01 784.63
  L 480.69 786.17
  L 482.48 787.50
  L 484.38 788.63
  L 484.38 788.63
  L 484.38 788.63
  L 484.38 788.63
  L 486.99 789.79
  L 489.78 790.61
  L 492.74 791.10
  L 495.89 791.24
  L 500.80 791.00
  L 504.54 790.34
  L 507.47 789.23
  L 510.35 787.51
  L 513.29 785.15
  L 517.22 781.40
  L 517.34 781.28
  L 517.95 781.00
  L 518.59 781.17
  L 521.64 783.47
  L 524.56 785.98
  L 527.33 788.71
  L 529.96 791.64
  L 530.10 791.97
  L 529.97 792.32
  L 526.14 796.59
  L 521.78 800.33
  L 516.97 803.48
  L 511.80 806.01
  L 506.41 807.83
  L 500.83 808.93
  L 495.21 809.25
  L 489.76 808.80
  L 483.74 807.47
  L 478.04 805.42
  L 472.64 802.64
  L 467.72 799.22
  L 463.36 795.23
  L 461.40 793.03
  L 459.60 790.71
  L 458.00 788.30
  L 456.57 785.78
  L 455.31 783.16
  L 454.24 780.43
  L 453.33 777.48
  L 452.64 774.43
  L 452.20 771.39
  L 451.97 768.27
  L 451.95 763.84
  L 452.22 759.61
  L 452.77 755.78
  L 453.60 752.31
  L 454.98 748.35
  L 456.69 744.62
  L 458.78 741.05
  L 461.17 737.75
  L 464.42 734.17
  L 468.05 731.00
  L 472.10 728.21
  L 476.45 725.90
  L 481.08 724.08
  L 485.94 722.78
  L 490.89 722.01
  L 495.99 721.77
  L 501.40 722.08
  L 506.54 722.94
  L 511.41 724.34
  L 516.00 726.29
  L 516.00 726.29
  L 516.00 726.29
  L 516.00 726.29
  L 519.85 728.49
  L 523.49 731.13
  L 526.91 734.20
  L 530.11 737.70
  L 530.11 738.19
  Z"
/>
<path fill="#ffffff" d="
  M 713.8255 759.9879
  L 714.1264 764.2700
  L 713.9961 768.5627
  L 713.4358 772.8247
  L 712.4510 777.0149
  L 711.0510 781.0929
  L 709.2495 785.0196
  L 707.0636 788.7569
  L 704.5146 792.2691
  L 701.6270 795.5222
  L 698.4285 798.4849
  L 694.9499 801.1287
  L 691.2248 803.4282
  L 687.2891 805.3611
  L 683.1806 806.9088
  L 678.9388 808.0566
  L 674.6048 808.7932
  L 670.2201 809.1117
  L 665.8271 809.0088
  L 661.4680 808.4858
  L 657.1847 807.5475
  L 653.0187 806.2030
  L 649.0099 804.4652
  L 645.1970 802.3510
  L 641.6167 799.8806
  L 638.3036 797.0778
  L 635.2894 793.9697
  L 632.6032 790.5862
  L 630.2709 786.9598
  L 628.3150 783.1255
  L 626.7542 779.1202
  L 625.6037 774.9824
  L 624.8745 770.7521
  L 624.8745 770.7521
  L 624.5736 766.4700
  L 624.7039 762.1773
  L 625.2642 757.9153
  L 626.2490 753.7251
  L 627.6490 749.6471
  L 629.4505 745.7204
  L 631.6364 741.9831
  L 634.1854 738.4709
  L 637.0730 735.2178
  L 640.2715 732.2551
  L 643.7501 729.6113
  L 647.4752 727.3118
  L 651.4109 725.3789
  L 655.5194 723.8312
  L 659.7612 722.6834
  L 664.0952 721.9468
  L 668.4799 721.6283
  L 672.8729 721.7312
  L 677.2320 722.2542
  L 681.5153 723.1925
  L 685.6813 724.5370
  L 689.6901 726.2748
  L 693.5030 728.3890
  L 697.0833 730.8594
  L 700.3964 733.6622
  L 703.4106 736.7703
  L 706.0968 740.1538
  L 708.4291 743.7802
  L 710.3850 747.6145
  L 711.9458 751.6198
  L 713.0963 755.7576
  L 713.8255 759.9879
  Z
  M 667.4499 791.2732
  L 669.9624 791.3406
  L 672.4699 791.1570
  L 674.9483 790.7243
  L 677.3738 790.0464
  L 679.7230 789.1301
  L 681.9732 787.9841
  L 684.1029 786.6194
  L 686.0914 785.0492
  L 687.9196 783.2887
  L 689.5700 781.3547
  L 691.0266 779.2659
  L 692.2754 777.0424
  L 693.3044 774.7056
  L 694.1037 772.2780
  L 694.6655 769.7831
  L 694.9845 767.2448
  L 695.0576 764.6875
  L 694.8841 762.1360
  L 694.4656 759.6148
  L 693.8062 757.1481
  L 692.9123 754.7597
  L 691.7924 752.4726
  L 690.4573 750.3089
  L 688.9199 748.2894
  L 687.1950 746.4335
  L 685.2992 744.7590
  L 683.2508 743.2823
  L 681.0695 742.0173
  L 678.7762 740.9764
  L 676.3932 740.1696
  L 673.9433 739.6046
  L 671.4501 739.2868
  L 671.4501 739.2868
  L 668.9376 739.2194
  L 666.4301 739.4030
  L 663.9517 739.8357
  L 661.5262 740.5136
  L 659.1770 741.4299
  L 656.9268 742.5759
  L 654.7971 743.9406
  L 652.8086 745.5108
  L 650.9804 747.2713
  L 649.3300 749.2053
  L 647.8734 751.2941
  L 646.6246 753.5176
  L 645.5956 755.8544
  L 644.7963 758.2820
  L 644.2345 760.7769
  L 643.9155 763.3152
  L 643.8424 765.8725
  L 644.0159 768.4240
  L 644.4344 770.9452
  L 645.0938 773.4119
  L 645.9877 775.8003
  L 647.1076 778.0874
  L 648.4427 780.2511
  L 649.9801 782.2706
  L 651.7050 784.1265
  L 653.6008 785.8010
  L 655.6492 787.2777
  L 657.8305 788.5427
  L 660.1238 789.5836
  L 662.5068 790.3904
  L 664.9567 790.9554
  L 667.4499 791.2732
  Z"
/>
<path fill="#ffffff" d="
  M 810.5456 762.7488
  L 810.5769 767.0424
  L 810.1768 771.3195
  L 809.3491 775.5389
  L 808.1018 779.6599
  L 806.4470 783.6430
  L 804.4004 787.4497
  L 801.9820 791.0434
  L 799.2149 794.3895
  L 796.1258 797.4557
  L 792.7445 800.2125
  L 789.1034 802.6333
  L 785.2378 804.6949
  L 781.1848 806.3774
  L 776.9834 807.6646
  L 772.6741 808.5441
  L 768.2984 809.0075
  L 763.8985 809.0501
  L 759.5167 808.6718
  L 755.1952 807.8760
  L 750.9757 806.6705
  L 746.8987 805.0668
  L 743.0035 803.0805
  L 739.3277 800.7306
  L 735.9067 798.0398
  L 732.7734 795.0340
  L 729.9579 791.7421
  L 727.4874 788.1958
  L 725.3857 784.4293
  L 723.6730 780.4789
  L 722.3658 776.3826
  L 721.4768 772.1799
  L 721.0144 767.9112
  L 721.0144 767.9112
  L 720.9831 763.6176
  L 721.3832 759.3405
  L 722.2109 755.1211
  L 723.4582 751.0001
  L 725.1130 747.0170
  L 727.1596 743.2103
  L 729.5780 739.6166
  L 732.3451 736.2705
  L 735.4342 733.2043
  L 738.8155 730.4475
  L 742.4566 728.0267
  L 746.3222 725.9651
  L 750.3752 724.2826
  L 754.5766 722.9954
  L 758.8859 722.1159
  L 763.2616 721.6525
  L 767.6615 721.6099
  L 772.0433 721.9882
  L 776.3648 722.7840
  L 780.5843 723.9895
  L 784.6613 725.5932
  L 788.5565 727.5795
  L 792.2323 729.9294
  L 795.6533 732.6202
  L 798.7866 735.6260
  L 801.6021 738.9179
  L 804.0726 742.4642
  L 806.1743 746.2307
  L 807.8870 750.1811
  L 809.1942 754.2774
  L 810.0832 758.4801
  L 810.5456 762.7488
  Z
  M 766.7111 791.4171
  L 769.2034 791.2128
  L 771.6637 790.7589
  L 774.0685 790.0597
  L 776.3945 789.1220
  L 778.6194 787.9548
  L 780.7216 786.5692
  L 782.6811 784.9788
  L 784.4788 783.1987
  L 786.0975 781.2462
  L 787.5216 779.1400
  L 788.7373 776.9004
  L 789.7330 774.5490
  L 790.4992 772.1084
  L 791.0283 769.6022
  L 791.3153 767.0544
  L 791.3574 764.4897
  L 791.1543 761.9326
  L 790.7079 759.4079
  L 790.0225 756.9398
  L 789.1046 754.5522
  L 787.9632 752.2679
  L 786.6092 750.1091
  L 785.0557 748.0965
  L 783.3176 746.2494
  L 781.4117 744.5857
  L 779.3562 743.1215
  L 777.1711 741.8707
  L 774.8774 740.8454
  L 772.4971 740.0556
  L 770.0531 739.5088
  L 767.5691 739.2103
  L 765.0689 739.1629
  L 765.0689 739.1629
  L 762.5766 739.3672
  L 760.1163 739.8211
  L 757.7115 740.5203
  L 755.3855 741.4580
  L 753.1606 742.6252
  L 751.0584 744.0108
  L 749.0989 745.6012
  L 747.3012 747.3813
  L 745.6825 749.3338
  L 744.2584 751.4400
  L 743.0427 753.6796
  L 742.0470 756.0310
  L 741.2808 758.4716
  L 740.7517 760.9778
  L 740.4647 763.5256
  L 740.4226 766.0903
  L 740.6257 768.6474
  L 741.0721 771.1721
  L 741.7575 773.6402
  L 742.6754 776.0278
  L 743.8168 778.3121
  L 745.1708 780.4709
  L 746.7243 782.4835
  L 748.4624 784.3306
  L 750.3683 785.9943
  L 752.4238 787.4585
  L 754.6089 788.7093
  L 756.9026 789.7346
  L 759.2829 790.5244
  L 761.7269 791.0712
  L 764.2109 791.3697
  L 766.7111 791.4171
  Z"
/>
<path fill="#ffffff" d="
  M 177.22 777.66
  L 177.47 778.38
  L 177.72 778.63
  L 177.72 778.63
  L 177.72 778.63
  L 178.00 778.40
  L 178.28 777.68
  L 194.51 724.44
  L 194.86 723.73
  L 195.42 723.17
  L 196.14 722.81
  L 196.92 722.71
  L 209.08 723.05
  L 210.19 723.44
  L 210.86 724.39
  L 227.99 778.54
  L 228.46 779.40
  L 228.75 778.47
  L 229.46 773.77
  L 230.58 768.56
  L 237.13 742.10
  L 240.70 728.64
  L 242.17 723.54
  L 242.60 722.91
  L 243.33 722.69
  L 260.59 723.18
  L 261.28 723.51
  L 261.49 724.25
  L 261.49 724.25
  L 261.47 724.36
  L 238.53 806.02
  L 237.87 806.97
  L 236.76 807.32
  L 220.91 806.87
  L 220.28 806.65
  L 219.89 806.11
  L 202.95 752.53
  L 202.80 752.31
  L 202.65 752.53
  L 184.82 806.58
  L 184.41 807.13
  L 183.76 807.32
  L 167.88 806.87
  L 167.12 806.60
  L 166.67 805.93
  L 144.00 724.28
  L 143.96 724.10
  L 144.01 723.57
  L 144.28 723.11
  L 144.72 722.81
  L 145.24 722.71
  L 162.18 723.19
  L 163.32 723.59
  L 163.96 724.55
  L 177.22 777.66
  Z"
/>
<path fill="#ffffff" d="
  M 320.76 790.00
  L 320.19 790.19
  L 320.00 790.76
  L 320.00 806.49
  L 319.88 806.87
  L 319.50 806.99
  L 302.75 806.99
  L 302.22 806.77
  L 302.00 806.24
  L 302.00 790.87
  L 301.78 790.19
  L 301.09 789.94
  L 263.38 788.88
  L 263.02 788.73
  L 262.86 788.37
  L 262.73 782.72
  L 263.02 777.01
  L 263.28 775.69
  L 263.89 774.23
  L 266.19 770.73
  L 266.61 770.16
  L 298.56 726.07
  L 299.94 724.38
  L 301.28 723.40
  L 302.56 722.96
  L 304.17 722.81
  L 319.03 722.96
  L 319.73 723.27
  L 320.02 723.97
  L 320.02 773.91
  L 320.28 774.55
  L 320.92 774.81
  L 329.85 774.81
  L 330.67 775.08
  L 330.95 775.92
  L 330.95 788.14
  L 330.81 788.85
  L 330.41 789.46
  L 329.80 789.86
  L 329.09 790.00
  L 320.76 790.00
  Z
  M 302.30 772.85
  L 303.08 745.37
  L 303.02 744.46
  L 302.79 744.09
  L 302.79 744.09
  L 302.38 744.25
  L 301.80 744.94
  L 281.52 773.87
  L 281.30 774.61
  L 282.03 774.86
  L 300.23 774.86
  L 301.11 774.73
  L 301.75 774.36
  L 301.75 774.36
  L 302.15 773.73
  L 302.30 772.85
  Z"
/>
<path fill="#ffffff" d="
  M 560.51 773.02
  L 560.15 773.17
  L 560.00 773.53
  L 560.00 806.25
  L 559.78 806.79
  L 559.24 807.01
  L 543.01 807.01
  L 542.33 806.79
  L 542.07 806.13
  L 541.67 799.92
  L 541.08 789.55
  L 541.04 781.26
  L 541.81 757.10
  L 541.84 750.62
  L 541.47 741.83
  L 541.08 731.62
  L 541.27 724.04
  L 541.61 723.32
  L 542.35 723.03
  L 558.47 723.03
  L 559.06 723.15
  L 559.56 723.48
  L 559.89 723.98
  L 560.01 724.57
  L 560.01 754.51
  L 560.10 755.15
  L 560.38 755.62
  L 560.84 755.90
  L 561.50 755.99
  L 593.98 755.99
  L 594.67 755.71
  L 594.95 755.02
  L 594.95 723.99
  L 595.25 723.26
  L 595.97 722.96
  L 611.94 722.96
  L 611.94 722.96
  L 612.70 723.28
  L 613.01 724.04
  L 613.01 806.24
  L 612.82 806.81
  L 612.26 807.00
  L 595.74 807.00
  L 595.20 806.78
  L 594.98 806.24
  L 594.98 774.01
  L 594.69 773.31
  L 593.99 773.02
  L 560.51 773.02
  Z"
/>
<path fill="#ffffff" d="
  M 840.43 790.47
  L 840.40 790.55
  L 840.47 790.85
  L 840.75 790.98
  L 879.02 790.98
  L 879.73 791.28
  L 880.02 791.99
  L 880.02 806.23
  L 879.83 806.81
  L 879.25 807.00
  L 822.78 807.00
  L 822.22 806.77
  L 821.99 806.21
  L 821.99 724.57
  L 822.11 723.97
  L 822.45 723.46
  L 822.96 723.12
  L 823.56 723.00
  L 838.81 723.00
  L 839.74 723.31
  L 840.04 724.24
  L 839.98 776.75
  L 840.17 783.80
  L 840.73 788.49
  L 840.79 788.94
  L 840.43 790.47
  Z"
/>
<rect fill="#ffffff" x="-17.01" y="-7.50" transform="translate(354.98,770.51) rotate(0.1)" width="34.02" height="15.00" rx="1.32"/>
</svg>
